<?xml version="1.0" standalone="no"?>
<!DOCTYPE svg PUBLIC "-//W3C//DTD SVG 20010904//EN"
 "http://www.w3.org/TR/2001/REC-SVG-20010904/DTD/svg10.dtd">
<svg version="1.0" xmlns="http://www.w3.org/2000/svg"
 width="400.000000pt" height="400.000000pt" viewBox="0 0 400.000000 400.000000"
 preserveAspectRatio="xMidYMid meet">
<metadata>
Created by potrace 1.11, written by Peter Selinger 2001-2013
</metadata>
<g transform="translate(0.000000,400.000000) scale(0.100000,-0.100000)"
fill="#000000" stroke="none">
<path d="M1650 3931 c-41 -10 -100 -25 -130 -35 -78 -27 -210 -94 -217 -111
-3 -10 -19 -15 -42 -15 -77 0 -240 -62 -348 -131 -175 -114 -339 -326 -393
-506 -24 -78 7 -100 35 -25 27 72 89 192 127 243 63 88 198 219 250 242 16 6
28 15 28 19 0 5 4 8 10 8 5 0 32 14 58 30 27 17 59 30 71 30 11 0 21 4 21 8 0
4 21 13 48 21 26 7 57 17 70 22 13 5 35 9 50 9 15 0 38 9 52 20 14 11 29 20
33 20 5 0 36 13 70 29 265 123 600 121 917 -6 91 -37 246 -117 260 -134 3 -4
32 -23 65 -42 53 -32 144 -104 257 -203 19 -16 37 -38 41 -47 3 -9 13 -17 20
-17 17 0 270 -262 298 -309 12 -19 32 -43 45 -54 13 -10 22 -23 19 -28 -4 -5
1 -9 9 -9 9 0 16 -4 16 -9 0 -5 6 -16 13 -23 6 -8 18 -23 24 -33 13 -20 65
-105 83 -135 14 -25 40 -83 38 -85 -2 -2 -25 3 -53 11 -63 17 -97 17 -149 2
-66 -19 -146 -66 -146 -85 0 -7 -4 -13 -10 -13 -5 0 -10 -6 -10 -14 0 -8 -7
-17 -16 -20 -28 -11 -35 -7 -23 15 6 13 9 45 7 76 -4 41 -11 60 -31 81 -17 17
-27 39 -27 57 0 67 -80 133 -146 120 -19 -3 -34 -2 -34 3 0 5 -9 19 -20 32
-15 18 -34 24 -75 28 -60 5 -70 19 -35 49 25 22 25 44 -1 95 -24 47 -182 208
-205 208 -7 0 -14 4 -14 9 0 5 -13 14 -30 21 -16 7 -30 16 -30 21 0 5 -7 9
-15 9 -8 0 -15 5 -15 10 0 6 -6 10 -12 10 -24 -1 -147 65 -144 76 3 7 -5 9
-19 6 -12 -2 -42 5 -66 15 -24 10 -63 25 -87 33 -35 11 -40 15 -27 23 37 20
125 7 125 -19 0 -11 8 -15 29 -12 29 3 81 -19 81 -34 0 -4 10 -8 23 -8 12 0
28 -9 35 -20 8 -13 23 -20 42 -20 17 0 30 -3 30 -7 0 -5 18 -19 40 -33 22 -13
40 -28 40 -32 0 -4 9 -8 20 -8 23 0 56 -28 149 -122 77 -78 98 -105 135 -173
33 -59 55 -85 71 -85 30 0 -21 126 -76 188 -16 18 -29 36 -29 41 0 18 -138
149 -200 191 -36 24 -66 47 -68 52 -2 4 -8 8 -12 8 -5 0 -31 13 -57 28 -26 15
-64 34 -83 42 -19 7 -62 26 -96 41 -247 111 -606 129 -887 43 -103 -31 -280
-111 -333 -151 -17 -13 -34 -23 -37 -23 -13 0 -57 -44 -57 -56 0 -7 6 -15 13
-17 15 -7 -10 -27 -33 -27 -13 0 -13 1 0 10 13 9 13 10 -1 10 -23 0 -62 -49
-54 -68 6 -15 8 -15 21 2 10 14 14 16 14 5 0 -12 2 -12 9 1 6 8 7 18 5 22 -3
4 2 8 11 8 14 0 54 19 65 31 3 3 20 11 38 18 17 8 32 19 32 27 0 13 21 27 90
60 19 9 43 20 53 25 14 8 17 5 17 -17 0 -21 3 -25 18 -18 9 4 40 9 67 10 28 2
77 10 110 18 179 48 385 59 517 27 72 -17 81 -22 125 -71 26 -30 63 -67 81
-84 39 -35 40 -46 6 -46 -14 0 -35 -5 -46 -11 -28 -15 -6 -29 47 -29 47 0 205
-34 235 -50 16 -8 50 -67 50 -86 0 -2 -19 4 -42 12 -55 19 -196 24 -206 6 -6
-9 -31 -3 -105 28 -92 38 -217 64 -217 44 0 -5 40 -21 88 -36 48 -15 143 -58
212 -95 101 -55 140 -83 207 -150 81 -79 97 -103 70 -103 -7 0 -26 -14 -42
-30 -23 -24 -30 -41 -31 -76 -1 -25 -9 -53 -17 -62 -32 -37 -40 -132 -12 -162
8 -9 15 -36 15 -61 1 -68 30 -123 78 -145 26 -11 45 -28 53 -46 15 -36 72 -86
107 -94 54 -12 55 -12 47 -52 -9 -48 -62 -163 -108 -233 -48 -73 -99 -125
-187 -191 -87 -64 -120 -83 -210 -114 -50 -18 -60 -25 -46 -30 25 -10 117 10
170 36 52 25 60 25 51 3 -19 -50 -55 -255 -55 -313 1 -86 22 -179 54 -242 25
-49 26 -51 9 -81 -27 -49 -55 -77 -76 -77 -39 0 -9 -25 35 -28 37 -2 60 5 124
38 69 35 80 39 93 25 13 -13 9 -19 -35 -57 -27 -24 -60 -54 -74 -68 -60 -62
-138 -148 -169 -188 l-34 -43 -51 6 c-28 4 -68 15 -90 26 -28 15 -41 17 -51 9
-11 -9 -15 -4 -21 24 -9 51 -53 86 -108 86 -34 0 -48 6 -71 30 -27 28 -28 32
-17 68 7 22 12 53 12 71 0 26 4 31 25 31 17 0 25 -6 25 -17 0 -15 62 -93 73
-93 19 0 367 249 367 263 0 14 -31 7 -80 -18 -60 -31 -240 -151 -257 -172 -11
-14 -17 -12 -47 13 -19 16 -35 32 -35 35 -1 4 19 10 44 13 31 5 45 12 45 22 0
13 -8 14 -37 10 -113 -19 -342 -37 -523 -42 -377 -11 -653 45 -758 154 -54 55
-76 114 -76 207 0 104 9 139 32 129 30 -13 212 -14 212 0 0 7 -16 18 -34 24
-33 12 -86 72 -116 132 -10 21 -10 23 1 13 7 -7 23 -13 36 -13 l22 0 -25 47
c-51 98 -95 310 -106 515 -3 57 -14 62 -24 11 -18 -95 21 -389 65 -487 11 -26
16 -44 10 -41 -16 10 -75 135 -99 210 -12 39 -27 81 -33 95 -11 25 -12 24 -15
-11 -4 -50 32 -182 74 -264 63 -123 73 -139 109 -177 25 -27 31 -38 20 -38
-32 0 -167 75 -206 115 -69 68 -126 208 -165 403 -7 34 -28 21 -32 -19 -8 -76
39 -243 93 -331 42 -67 43 -74 9 -45 -130 113 -197 215 -229 349 -57 243 44
596 264 923 44 67 89 130 99 140 10 11 32 41 50 67 18 26 42 54 54 63 21 14
22 15 2 15 -43 0 -241 -231 -329 -384 -16 -27 -31 -44 -33 -38 -5 16 -57 15
-90 -2 -15 -8 -38 -33 -51 -56 -12 -23 -34 -45 -47 -50 -33 -13 -81 -91 -95
-156 -9 -40 -9 -67 0 -110 9 -50 9 -60 -5 -75 -21 -23 -20 -99 1 -141 8 -17
15 -39 15 -49 0 -36 23 -68 60 -83 34 -13 38 -19 45 -61 8 -58 67 -198 103
-245 37 -49 124 -130 139 -130 41 0 8 -141 -57 -236 -22 -32 -70 -92 -107
-132 -67 -72 -69 -74 -110 -69 -47 5 -63 -12 -36 -39 39 -39 232 14 292 80 14
14 27 26 30 26 3 0 6 -48 6 -108 0 -125 22 -204 86 -314 35 -60 119 -148 140
-148 24 0 5 -19 -25 -24 -59 -11 -136 -122 -136 -196 0 -16 -5 -41 -11 -57 -6
-15 -12 -80 -14 -143 -1 -63 -6 -125 -10 -138 -6 -19 -4 -22 23 -22 42 0 53
34 50 150 -3 123 10 236 32 280 30 58 54 74 125 78 59 4 69 1 113 -27 80 -51
115 -119 77 -151 -13 -11 -12 -16 2 -44 28 -52 22 -122 -15 -190 -41 -76 -42
-96 -2 -96 17 0 30 5 30 11 0 6 14 40 31 74 28 58 30 69 25 132 -6 65 -7 101
-6 167 1 41 -46 104 -107 143 l-53 34 0 57 c0 36 7 70 18 91 23 42 77 74 112
65 50 -12 53 -20 45 -130 -6 -96 -5 -104 18 -148 14 -26 49 -74 78 -107 59
-67 74 -97 84 -161 7 -45 -15 -122 -40 -143 -6 -5 -15 -27 -19 -48 -7 -35 -5
-37 19 -37 21 0 25 5 25 30 0 18 5 30 13 30 8 0 24 21 36 46 l23 46 29 -31
c17 -19 38 -31 53 -31 22 0 26 -4 26 -31 0 -17 4 -28 10 -24 5 3 10 -3 10 -14
0 -17 6 -21 31 -21 29 0 30 1 24 32 -4 18 -13 52 -21 76 -8 23 -17 78 -20 121
-6 75 -5 80 19 107 26 27 27 27 47 9 14 -12 20 -31 20 -59 0 -48 3 -53 52 -90
42 -31 43 -51 8 -111 -10 -16 -20 -42 -24 -58 -6 -25 -4 -27 23 -27 25 0 32 6
47 44 14 33 22 42 36 38 10 -2 18 -8 18 -13 0 -5 11 -9 25 -9 22 0 24 -3 19
-30 l-6 -30 65 0 65 0 -5 40 c-5 33 -3 40 11 40 9 0 16 4 16 8 0 4 13 13 30
19 29 11 29 11 52 -48 22 -58 24 -59 61 -59 l39 0 -41 75 -40 76 22 22 c12 12
38 29 57 38 47 22 88 62 96 94 4 15 17 30 30 35 51 20 73 88 45 143 -19 38
-16 53 9 36 8 -5 34 -9 58 -9 47 0 50 -6 24 -41 -54 -69 -174 -317 -207 -426
-13 -42 -13 -43 11 -43 15 0 24 6 24 15 0 19 146 312 164 330 7 7 19 27 26 44
7 17 16 31 21 31 5 0 9 6 9 13 0 12 48 83 75 113 5 6 21 30 35 52 14 23 31 42
38 42 6 0 12 7 12 15 0 20 176 192 217 212 26 12 37 13 46 4 6 -6 17 -11 25
-11 8 0 35 -23 60 -52 53 -58 61 -66 213 -198 28 -25 129 -122 223 -216 168
-167 226 -217 226 -196 0 24 -26 69 -60 103 -19 19 -80 84 -135 144 -55 59
-163 162 -239 228 -76 66 -157 140 -179 165 -50 53 -109 85 -161 87 -66 2 -68
24 -8 90 29 31 52 61 52 66 0 6 5 7 10 4 6 -3 10 -18 10 -33 1 -67 81 -182
127 -182 30 0 29 13 -3 45 -46 46 -74 124 -77 211 -1 62 -5 79 -17 79 -8 0
-22 -14 -30 -32 -34 -71 -259 -273 -304 -273 -3 0 14 30 36 67 59 97 91 194
92 278 1 56 -2 70 -14 70 -11 0 -17 -17 -23 -64 -7 -62 -63 -221 -77 -221 -3
0 -14 33 -23 73 -26 108 -22 237 11 397 l28 135 95 95 c52 52 107 116 121 142
29 52 73 167 83 213 5 28 8 30 54 30 l49 0 12 -60 c17 -87 57 -162 120 -226
75 -76 144 -102 255 -97 146 6 248 77 312 216 19 41 45 85 56 98 40 43 44 50
72 135 16 50 29 114 31 159 l4 75 50 -3 c53 -4 68 11 28 27 -65 26 -140 33
-244 26 -60 -4 -147 -7 -194 -6 -98 2 -130 -4 -130 -23 0 -8 17 -16 46 -20
156 -21 255 -142 257 -311 2 -223 -188 -371 -398 -310 -105 30 -192 139 -225
282 l-12 52 46 44 45 45 6 -36 c13 -88 27 -140 41 -161 29 -41 34 -8 15 94
l-19 100 33 28 c18 15 36 41 40 57 4 17 10 30 15 30 5 0 15 3 23 6 10 4 18 -8
26 -42 33 -131 128 -227 244 -249 25 -5 39 -1 60 15 38 30 34 41 -16 34 -76
-11 -167 49 -213 138 -37 74 -33 81 29 53 60 -29 77 -31 77 -11 0 19 -54 60
-113 86 -52 23 -51 21 -37 71 7 25 7 46 0 64 -13 34 -5 44 65 90 71 48 158 69
221 55 56 -13 129 -43 138 -58 3 -6 -12 -4 -38 3 -62 19 -109 4 -73 -22 6 -5
39 -17 72 -27 33 -10 84 -29 114 -42 65 -29 81 -30 81 -5 0 24 -82 116 -132
147 -21 14 -38 32 -38 42 0 68 -104 254 -187 334 -30 29 -82 89 -115 132 -78
101 -294 323 -373 384 -33 25 -62 49 -65 52 -12 15 -140 105 -200 140 -198
116 -344 174 -522 210 -128 26 -356 26 -468 1z m110 -325 c0 -9 -7 -12 -20 -9
-11 3 -20 9 -20 14 0 5 9 9 20 9 11 0 20 -6 20 -14z m-147 -13 c-7 -2 -13 -10
-13 -17 0 -6 -21 -18 -47 -25 -46 -14 -59 -19 -103 -41 -11 -5 -27 -10 -35
-10 -8 0 -15 -4 -15 -10 0 -5 -24 -10 -52 -10 -38 0 -49 3 -38 10 12 8 12 10
-5 10 -32 0 4 20 38 20 15 0 27 5 27 10 0 6 8 10 18 10 9 0 26 7 36 15 11 8
25 15 30 15 6 0 5 -4 -3 -9 -9 -6 -10 -11 -2 -15 6 -4 11 -2 11 3 0 6 8 11 18
11 13 0 14 2 4 9 -10 6 -7 10 12 13 17 3 23 1 19 -6 -3 -6 3 -3 13 7 11 11 33
17 59 16 22 0 34 -3 28 -6z m467 -18 c0 -10 -10 -15 -30 -15 -47 0 -35 27 13
29 9 1 17 -6 17 -14z m-73 -1 c-3 -3 -12 -4 -19 -1 -8 3 -5 6 6 6 11 1 17 -2
13 -5z m293 -165 c72 -32 200 -109 274 -167 122 -94 146 -133 146 -243 0 -38
-5 -61 -15 -69 -8 -7 -15 -19 -15 -27 0 -12 -8 -14 -34 -9 -27 5 -40 2 -63
-18 l-30 -25 -37 53 c-44 64 -90 108 -172 161 -33 22 -69 46 -80 53 -16 11
-12 12 31 7 106 -13 202 -54 282 -121 28 -24 56 -44 62 -44 26 0 7 37 -43 87
-39 39 -62 74 -81 121 -22 54 -48 101 -73 132 -2 3 -9 -3 -16 -12 -12 -16 -17
-15 -79 3 -44 14 -68 27 -72 39 -3 10 -35 46 -71 79 l-65 61 53 -21 c29 -11
73 -29 98 -40z m545 -514 c14 -13 25 -31 25 -38 0 -17 37 -30 46 -16 3 5 19 9
35 9 36 0 79 -42 79 -78 0 -13 14 -40 30 -59 17 -18 31 -44 31 -56 2 -36 -2
-61 -12 -71 -15 -16 -10 -41 11 -69 40 -50 17 -133 -38 -139 -23 -3 -28 -8
-32 -43 -5 -36 -10 -42 -56 -65 -28 -14 -69 -40 -92 -58 -23 -18 -55 -37 -73
-42 -26 -8 -34 -5 -54 14 -14 14 -40 25 -66 29 -53 7 -91 35 -103 76 -7 23
-21 38 -48 52 -47 24 -72 76 -62 132 5 32 3 41 -15 53 -35 25 -24 113 15 137
10 6 12 19 8 47 -5 33 -2 42 19 64 17 17 37 26 57 26 20 0 39 9 53 23 26 28
79 41 97 24 9 -9 15 -8 24 7 21 37 55 66 76 66 12 0 32 -11 45 -25z m-2535
-240 c0 -3 -17 -40 -39 -83 -68 -135 -123 -337 -136 -494 -6 -74 -8 -77 -27
-67 -11 6 -17 17 -14 25 3 8 -3 37 -14 65 -25 63 -25 77 1 105 20 22 21 27 9
68 -19 69 -9 156 23 205 16 23 40 46 55 52 31 12 42 26 42 54 0 22 21 43 60
62 28 13 40 15 40 8z m3318 -303 c2 -42 -4 -92 -19 -145 -11 -45 -23 -92 -26
-104 -9 -40 -20 -25 -26 37 -3 33 -16 86 -29 118 -26 65 -25 63 -74 120 l-37
43 104 -3 104 -3 3 -63z m-3154 -881 c3 -4 26 -14 51 -21 25 -7 47 -16 50 -19
2 -4 0 -25 -6 -47 -13 -56 -12 -176 2 -226 43 -149 198 -241 474 -280 113 -16
548 -16 664 0 47 7 87 10 89 7 3 -2 -15 -13 -40 -24 -24 -10 -72 -44 -105 -75
-33 -31 -64 -56 -68 -56 -4 0 -47 25 -97 55 -49 30 -96 55 -104 55 -11 0 -13
-11 -7 -57 l6 -58 -46 38 c-60 49 -125 77 -173 76 -22 -1 -56 6 -78 16 -73 31
-92 -6 -22 -44 25 -13 53 -32 62 -42 17 -18 16 -19 -23 -19 -22 0 -54 -3 -72
-6 -27 -6 -32 -3 -41 20 -22 58 -116 83 -186 50 -32 -15 -36 -15 -76 6 -24 12
-51 29 -62 38 -31 29 -72 95 -85 141 -9 30 -16 40 -23 33 -20 -20 26 -311 59
-375 8 -16 12 -31 9 -35 -21 -20 -136 191 -162 296 -15 63 -15 228 1 298 12
53 -12 51 -68 -3 -59 -57 -101 -87 -136 -98 -18 -5 -11 6 30 47 87 88 148 203
149 281 0 25 5 37 14 37 8 0 17 -4 20 -9z m247 -703 c8 -3 7 -17 -5 -50 -8
-26 -14 -70 -13 -98 2 -40 -1 -50 -14 -50 -12 0 -18 13 -22 44 -4 24 -20 86
-37 138 -16 52 -30 98 -30 102 0 4 25 -13 55 -38 30 -24 60 -46 66 -48z m1069
28 c0 -16 -7 -25 -22 -29 -13 -3 -33 -9 -45 -12 -35 -11 -27 9 15 38 47 32 52
33 52 3z m-513 -49 c34 -23 70 -57 80 -74 10 -18 21 -33 25 -33 3 0 8 -11 10
-25 2 -19 6 -22 18 -15 17 10 20 81 7 143 l-8 39 43 -27 c24 -14 55 -31 71
-37 l27 -10 -42 -22 c-33 -16 -49 -33 -69 -74 -14 -29 -35 -60 -47 -68 -26
-18 -52 -65 -52 -92 0 -11 -7 -26 -16 -33 -9 -8 -28 -31 -41 -53 -22 -35 -25
-47 -21 -122 1 -46 -1 -84 -5 -84 -4 -1 -24 13 -43 30 -26 22 -40 47 -52 88
-18 68 -23 74 -93 149 -80 86 -90 112 -77 200 l11 71 52 7 c28 3 63 12 78 20
25 13 28 12 46 -11 11 -14 27 -45 37 -70 18 -46 25 -52 42 -31 18 21 -8 103
-47 149 -44 51 -25 47 66 -15z m541 -57 c37 -34 51 -40 87 -40 48 0 62 -12 72
-60 3 -19 20 -45 39 -62 40 -35 60 -88 45 -117 -6 -11 -27 -25 -46 -32 -25 -9
-37 -21 -41 -39 -3 -14 -7 -30 -9 -37 -6 -18 -51 -45 -88 -52 -23 -5 -33 -13
-35 -29 -4 -24 -48 -52 -83 -52 -11 0 -34 -11 -51 -25 -42 -35 -97 -34 -138 3
-17 15 -32 34 -33 42 -4 26 -17 40 -37 40 -36 0 -52 59 -25 86 24 24 18 43
-20 58 -37 16 -60 55 -50 87 4 10 19 28 36 39 16 12 29 30 29 41 0 24 14 52
43 85 16 19 28 23 46 19 18 -5 30 0 46 19 25 30 71 50 80 36 10 -16 30 -12 55
10 13 11 26 20 29 20 3 0 26 -18 49 -40z"/>
<path d="M1230 3228 c1 -182 271 -356 516 -333 46 4 82 13 95 24 20 16 17 17
-87 17 -145 -1 -279 41 -375 116 -43 32 -95 109 -104 153 -13 58 -16 65 -31
65 -10 0 -14 -12 -14 -42z"/>
<path d="M1032 3222 c-43 -144 38 -276 208 -340 152 -58 405 -67 583 -21 43
11 50 29 10 23 -62 -8 -343 -5 -408 6 -185 29 -297 86 -342 173 -14 27 -19
101 -11 167 5 43 -27 37 -40 -8z"/>
<path d="M1675 3150 c-4 -6 11 -25 32 -43 57 -48 236 -229 253 -256 8 -13 29
-42 46 -65 40 -54 115 -209 152 -316 54 -156 76 -279 76 -440 0 -161 -11 -219
-49 -248 -47 -37 -22 -56 35 -27 15 8 40 29 54 47 28 34 26 14 -3 -32 -69
-112 -130 -170 -179 -170 -30 0 -24 -24 6 -28 94 -14 223 134 267 307 17 63
25 308 12 354 -4 15 -13 27 -21 27 -10 0 -15 -26 -19 -102 -5 -100 -36 -231
-59 -253 -8 -7 -9 -4 -3 10 17 46 18 213 0 316 -28 175 -135 466 -203 554 -9
13 -24 33 -32 45 -57 87 -210 242 -290 294 -59 39 -66 41 -75 26z"/>
<path d="M886 3125 c-3 -9 -6 -24 -6 -34 0 -9 -9 -35 -20 -56 -45 -87 -113
-331 -145 -518 -5 -33 -8 -37 -30 -31 -38 9 -46 -23 -12 -50 25 -20 26 -25 29
-149 2 -70 0 -127 -3 -127 -10 0 -57 110 -68 160 -6 25 -11 62 -11 83 0 47
-20 46 -33 -3 -14 -55 18 -174 63 -235 39 -53 78 -85 105 -85 20 0 19 9 -2 32
-15 17 -17 38 -14 146 1 70 4 129 7 131 2 2 30 -4 61 -14 69 -22 214 -27 221
-7 2 8 23 -5 55 -34 59 -53 115 -84 152 -84 36 0 31 14 -10 29 -19 7 -60 35
-90 63 -44 40 -67 73 -105 152 -84 173 -123 355 -119 551 1 53 -2 90 -8 92 -6
2 -13 -3 -17 -12z m23 -447 c26 -92 64 -187 98 -245 l25 -43 -23 0 c-28 0
-229 48 -247 59 -10 6 -7 35 13 142 24 124 50 236 77 334 11 39 12 38 24 -65
7 -58 22 -140 33 -182z"/>
<path d="M1862 2829 c-9 -17 -25 -42 -35 -55 l-19 -24 -36 31 c-43 38 -58 22
-18 -20 14 -15 26 -32 26 -39 0 -14 -82 -98 -133 -137 l-39 -29 -55 57 c-51
53 -73 63 -73 34 0 -7 20 -34 45 -62 50 -55 52 -60 28 -70 -13 -4 -25 2 -41
22 -39 47 -140 200 -147 222 -7 22 -29 28 -39 12 -24 -39 209 -347 275 -364
26 -7 24 5 -6 33 -32 30 -31 38 1 46 19 5 32 0 52 -18 15 -14 35 -28 45 -31
29 -10 20 19 -15 48 l-32 27 35 26 c19 14 58 50 88 79 30 29 57 53 60 53 3 -1
23 -22 43 -48 62 -78 167 -186 174 -179 4 4 -5 25 -20 48 -29 44 -155 192
-168 197 -13 6 -9 26 12 70 27 55 36 102 21 102 -7 0 -20 -14 -29 -31z"/>
<path d="M1060 2813 c0 -88 73 -268 147 -362 68 -87 183 -155 230 -137 14 6 5
14 -42 36 -33 15 -79 44 -102 64 -64 56 -134 178 -179 311 -39 114 -54 139
-54 88z"/>
<path d="M1772 2358 c-28 -28 -5 -183 60 -398 22 -74 48 -153 58 -175 9 -22
25 -59 35 -83 22 -52 50 -71 73 -48 14 13 13 28 -7 153 -23 140 -102 471 -126
531 -12 27 -19 32 -47 32 -19 0 -39 -5 -46 -12z"/>
<path d="M890 2140 c-22 -14 -20 -211 3 -312 28 -121 72 -250 100 -295 25 -40
61 -60 73 -42 15 25 -77 532 -113 622 -15 37 -34 46 -63 27z"/>
<path d="M3190 1706 c0 -35 43 -124 81 -169 43 -50 92 -81 174 -109 l50 -18
-64 4 c-52 4 -70 10 -101 35 -44 35 -80 41 -80 13 0 -11 9 -27 20 -37 12 -11
28 -34 36 -51 9 -18 27 -45 40 -59 13 -14 24 -29 24 -32 0 -12 -137 6 -168 22
-18 9 -58 42 -88 73 -59 61 -73 60 -74 -3 -1 -57 -18 -105 -65 -181 -26 -41
-49 -73 -52 -70 -4 4 3 56 23 169 6 36 6 39 -16 35 -20 -2 -27 -14 -42 -73
-28 -106 -34 -258 -14 -326 17 -59 31 -77 65 -84 26 -5 26 -2 1 49 -12 27 -20
65 -21 109 l-2 68 54 48 c57 51 109 139 109 185 0 34 10 33 49 -8 50 -51 106
-69 199 -62 86 6 152 16 152 23 0 16 -23 42 -42 47 -13 3 -31 18 -42 32 l-19
26 43 -7 c25 -4 60 -2 88 6 56 15 122 63 122 89 0 17 -6 18 -49 13 -61 -7
-164 25 -223 70 -23 18 -65 66 -93 107 -52 75 -75 95 -75 66z"/>
<path d="M1730 1449 c-170 -38 -362 -116 -417 -168 -28 -26 -28 -43 -4 -97 27
-60 106 -114 167 -114 36 0 29 17 -18 41 -52 26 -84 55 -103 91 -22 40 -19 54
19 76 90 53 474 158 496 136 14 -14 -7 -91 -52 -187 -22 -49 -38 -90 -36 -92
2 -2 18 4 35 15 44 27 105 153 111 229 7 96 -27 109 -198 70z"/>
<path d="M621 401 c-17 -11 -5 -31 19 -31 10 0 21 -4 24 -9 3 -5 18 -11 33
-14 16 -3 39 -8 52 -13 22 -6 22 -5 11 15 -12 22 -81 60 -110 61 -8 0 -21 -4
-29 -9z"/>
<path d="M3112 340 c-18 -11 -37 -20 -42 -20 -5 0 -49 -39 -99 -87 -63 -60
-91 -94 -91 -110 0 -21 6 -18 76 31 67 48 108 81 192 154 24 21 30 52 10 52
-7 0 -28 -9 -46 -20z"/>
<path d="M1265 10 c3 -5 11 -10 16 -10 6 0 7 5 4 10 -3 6 -11 10 -16 10 -6 0
-7 -4 -4 -10z"/>
</g>
</svg>
