<svg id="图层_1" data-name="图层 1" xmlns="http://www.w3.org/2000/svg" viewBox="0 0 1584.13 394.96"><title>shirahaoj</title><path d="M164.22,4.79c-4.1,1-10,2.5-13,3.5-7.8,2.7-21,9.4-21.7,11.1-.3,1-1.9,1.5-4.2,1.5-7.7,0-24,6.2-34.8,13.1-17.5,11.4-33.9,32.6-39.3,50.6-2.4,7.8.7,10,3.5,2.5,2.7-7.2,8.9-19.2,12.7-24.3,6.3-8.8,19.8-21.9,25-24.2,1.6-.6,2.8-1.5,2.8-1.9s.4-.8,1-.8,3.2-1.4,5.8-3,5.9-3,7.1-3,2.1-.4,2.1-.8,2.1-1.3,4.8-2.1,5.7-1.7,7-2.2a16.4,16.4,0,0,1,5-.9,9.92,9.92,0,0,0,5.2-2,10.94,10.94,0,0,1,3.3-2,46.54,46.54,0,0,0,7-2.9c26.5-12.3,60-12.1,91.7.6,9.1,3.7,24.6,11.7,26,13.4a48.63,48.63,0,0,0,6.5,4.2c5.3,3.2,14.4,10.4,25.7,20.3a18.84,18.84,0,0,1,4.1,4.7,2.59,2.59,0,0,0,2,1.7c1.7,0,27,26.2,29.8,30.9a28,28,0,0,0,4.5,5.4c1.3,1,2.2,2.3,1.9,2.8s.1.9.9.9,1.6.4,1.6.9a4.55,4.55,0,0,0,1.3,2.3c.6.8,1.8,2.3,2.4,3.3,1.3,2,6.5,10.5,8.3,13.5,1.4,2.5,4,8.3,3.8,8.5s-2.5-.3-5.3-1.1c-6.3-1.7-9.7-1.7-14.9-.2-6.6,1.9-14.6,6.6-14.6,8.5,0,.7-.4,1.3-1,1.3s-1,.6-1,1.4a2.34,2.34,0,0,1-1.6,2c-2.8,1.1-3.5.7-2.3-1.5.6-1.3.9-4.5.7-7.6-.4-4.1-1.1-6-3.1-8.1a8.65,8.65,0,0,1-2.7-5.7c0-6.7-8-13.3-14.6-12-1.9.3-3.4.2-3.4-.3a8.85,8.85,0,0,0-2-3.2c-1.5-1.8-3.4-2.4-7.5-2.8-6-.5-7-1.9-3.5-4.9,2.5-2.2,2.5-4.4-.1-9.5-2.4-4.7-18.2-20.8-20.5-20.8-.7,0-1.4-.4-1.4-.9s-1.3-1.4-3-2.1-3-1.6-3-2.1-.7-.9-1.5-.9-1.5-.5-1.5-1a1.12,1.12,0,0,0-1.2-1c-2.4.1-14.7-6.5-14.4-7.6.3-.7-.5-.9-1.9-.6-1.2.2-4.2-.5-6.6-1.5s-6.3-2.5-8.7-3.3c-3.5-1.1-4-1.5-2.7-2.3,3.7-2,12.5-.7,12.5,1.9,0,1.1.8,1.5,2.9,1.2,2.9-.3,8.1,1.9,8.1,3.4,0,.4,1,.8,2.3.8a4.73,4.73,0,0,1,3.5,2,4.67,4.67,0,0,0,4.2,2c1.7,0,3,.3,3,.7s1.8,1.9,4,3.3,4,2.8,4,3.2.9.8,2,.8c2.3,0,5.6,2.8,14.9,12.2,7.7,7.8,9.8,10.5,13.5,17.3,3.3,5.9,5.5,8.5,7.1,8.5,3,0-2.1-12.6-7.6-18.8-1.6-1.8-2.9-3.6-2.9-4.1,0-1.8-13.8-14.9-20-19.1-3.6-2.4-6.6-4.7-6.8-5.2a1.64,1.64,0,0,0-1.2-.8,29.18,29.18,0,0,1-5.7-2.8,93,93,0,0,0-8.3-4.2c-1.9-.7-6.2-2.6-9.6-4.1-24.7-11.1-60.6-12.9-88.7-4.3-10.3,3.1-28,11.1-33.3,15.1a15.61,15.61,0,0,1-3.7,2.3c-1.3,0-5.7,4.4-5.7,5.6a1.94,1.94,0,0,0,1.3,1.7c1.5.7-1,2.7-3.3,2.7-1.3,0-1.3-.1,0-1s1.3-1-.1-1c-2.3,0-6.2,4.9-5.4,6.8.6,1.5.8,1.5,2.1-.2,1-1.4,1.4-1.6,1.4-.5s.2,1.2.9-.1a2.51,2.51,0,0,0,.5-2.2c-.3-.4.2-.8,1.1-.8,1.4,0,5.4-1.9,6.5-3.1A19.5,19.5,0,0,1,108,60c1.7-.8,3.2-1.9,3.2-2.7,0-1.3,2.1-2.7,9-6,1.9-.9,4.3-2,5.3-2.5,1.4-.8,1.7-.5,1.7,1.7s.3,2.5,1.8,1.8a26.31,26.31,0,0,1,6.7-1,81,81,0,0,0,11-1.8c17.9-4.8,38.5-5.9,51.7-2.7,7.2,1.7,8.1,2.2,12.5,7.1,2.6,3,6.3,6.7,8.1,8.4,3.9,3.5,4,4.6.6,4.6A11.53,11.53,0,0,0,215,68c-2.8,1.5-.6,2.9,4.7,2.9,4.7,0,20.5,3.4,23.5,5,1.6.8,5,6.7,5,8.6,0,.2-1.9-.4-4.2-1.2-5.5-1.9-19.6-2.4-20.6-.6-.6.9-3.1.3-10.5-2.8-9.2-3.8-21.7-6.4-21.7-4.4,0,.5,4,2.1,8.8,3.6s14.3,5.8,21.2,9.5c10.1,5.5,14,8.3,20.7,15,8.1,7.9,9.7,10.3,7,10.3-.7,0-2.6,1.4-4.2,3-2.3,2.4-3,4.1-3.1,7.6-.1,2.5-.9,5.3-1.7,6.2-3.2,3.7-4,13.2-1.2,16.2.8.9,1.5,3.6,1.5,6.1.1,6.8,3,12.3,7.8,14.5a9.85,9.85,0,0,1,5.3,4.6c1.5,3.6,7.2,8.6,10.7,9.4,5.4,1.2,5.5,1.2,4.7,5.2-.9,4.8-6.2,16.3-10.8,23.3-4.8,7.3-9.9,12.5-18.7,19.1-8.7,6.4-12,8.3-21,11.4-5,1.8-6,2.5-4.6,3,2.5,1,11.7-1,17-3.6s6-2.5,5.1-.3c-1.9,5-5.5,25.5-5.5,31.3.1,8.6,2.2,17.9,5.4,24.2,2.5,4.9,2.6,5.1.9,8.1-2.7,4.9-5.5,7.7-7.6,7.7-3.9,0-.9,2.5,3.5,2.8,3.7.2,6-.5,12.4-3.8,6.9-3.5,8-3.9,9.3-2.5s.9,1.9-3.5,5.7c-2.7,2.4-6,5.4-7.4,6.8-6,6.2-13.8,14.8-16.9,18.8l-3.4,4.3-5.1-.6a35,35,0,0,1-9-2.6c-2.8-1.5-4.1-1.7-5.1-.9s-1.5.4-2.1-2.4c-.9-5.1-5.3-8.6-10.8-8.6-3.4,0-4.8-.6-7.1-3-2.7-2.8-2.8-3.2-1.7-6.8a27.76,27.76,0,0,0,1.2-7.1c0-2.6.4-3.1,2.5-3.1,1.7,0,2.5.6,2.5,1.7,0,1.5,6.2,9.3,7.3,9.3,1.9,0,36.7-24.9,36.7-26.3s-3.1-.7-8,1.8c-6,3.1-24,15.1-25.7,17.2-1.1,1.4-1.7,1.2-4.7-1.3-1.9-1.6-3.5-3.2-3.5-3.5s1.9-1,4.4-1.3c3.1-.5,4.5-1.2,4.5-2.2,0-1.3-.8-1.4-3.7-1-11.3,1.9-34.2,3.7-52.3,4.2-37.7,1.1-65.3-4.5-75.8-15.4-5.4-5.5-7.6-11.4-7.6-20.7,0-10.4.9-13.9,3.2-12.9,3,1.3,21.2,1.4,21.2,0,0-.7-1.6-1.8-3.4-2.4-3.3-1.2-8.6-7.2-11.6-13.2-1-2.1-1-2.3.1-1.3a5.8,5.8,0,0,0,3.6,1.3h2.2l-2.5-4.7c-5.1-9.8-9.5-31-10.6-51.5-.3-5.7-1.4-6.2-2.4-1.1-1.8,9.5,2.1,38.9,6.5,48.7,1.1,2.6,1.6,4.4,1,4.1-1.6-1-7.5-13.5-9.9-21-1.2-3.9-2.7-8.1-3.3-9.5-1.1-2.5-1.2-2.4-1.5,1.1-.4,5,3.2,18.2,7.4,26.4,6.3,12.3,7.3,13.9,10.9,17.7,2.5,2.7,3.1,3.8,2,3.8-3.2,0-16.7-7.5-20.6-11.5-6.9-6.8-12.6-20.8-16.5-40.3-.7-3.4-2.8-2.1-3.2,1.9-.8,7.6,3.9,24.3,9.3,33.1,4.2,6.7,4.3,7.4.9,4.5-13-11.3-19.7-21.5-22.9-34.9-5.7-24.3,4.4-59.6,26.4-92.3,4.4-6.7,8.9-13,9.9-14s3.2-4.1,5-6.7a34.58,34.58,0,0,1,5.4-6.3c2.1-1.4,2.2-1.5.2-1.5-4.3,0-24.1,23.1-32.9,38.4-1.6,2.7-3.1,4.4-3.3,3.8-.5-1.6-5.7-1.5-9,.2a16.58,16.58,0,0,0-5.1,5.6c-1.2,2.3-3.4,4.5-4.7,5-3.3,1.3-8.1,9.1-9.5,15.6a22.74,22.74,0,0,0,0,11c.9,5,.9,6-.5,7.5-2.1,2.3-2,9.9.1,14.1a15.46,15.46,0,0,1,1.5,4.9,9.05,9.05,0,0,0,6,8.3c3.4,1.3,3.8,1.9,4.5,6.1.8,5.8,6.7,19.8,10.3,24.5,3.7,4.9,12.4,13,13.9,13,4.1,0,.8,14.1-5.7,23.6a144.93,144.93,0,0,1-10.7,13.2c-6.7,7.2-6.9,7.4-11,6.9-4.7-.5-6.3,1.2-3.6,3.9,3.9,3.9,23.2-1.4,29.2-8a13.94,13.94,0,0,1,3-2.6c.3,0,.6,4.8.6,10.8,0,12.5,2.2,20.4,8.6,31.4,3.5,6,11.9,14.8,14,14.8,2.4,0,.5,1.9-2.5,2.4-5.9,1.1-13.6,12.2-13.6,19.6a19.17,19.17,0,0,1-1.1,5.7c-.6,1.5-1.2,8-1.4,14.3s-.6,12.5-1,13.8c-.6,1.9-.4,2.2,2.3,2.2,4.2,0,5.3-3.4,5-15-.3-12.3,1-23.6,3.2-28,3-5.8,5.4-7.4,12.5-7.8,5.9-.4,6.9-.1,11.3,2.7,8,5.1,11.5,11.9,7.7,15.1-1.3,1.1-1.2,1.6.2,4.4,2.8,5.2,2.2,12.2-1.5,19-4.1,7.6-4.2,9.6-.2,9.6,1.7,0,3-.5,3-1.1s1.4-4,3.1-7.4c2.8-5.8,3-6.9,2.5-13.2a132.51,132.51,0,0,1-.6-16.7c.1-4.1-4.6-10.4-10.7-14.3l-5.3-3.4v-5.7A21,21,0,0,1,77,327c2.3-4.2,7.7-7.4,11.2-6.5,5,1.2,5.3,2,4.5,13-.6,9.6-.5,10.4,1.8,14.8a72.73,72.73,0,0,0,7.8,10.7c5.9,6.7,7.4,9.7,8.4,16.1.7,4.5-1.5,12.2-4,14.3-.6.5-1.5,2.7-1.9,4.8-.7,3.5-.5,3.7,1.9,3.7,2.1,0,2.5-.5,2.5-3,0-1.8.5-3,1.3-3s2.4-2.1,3.6-4.6l2.3-4.6,2.9,3.1c1.7,1.9,3.8,3.1,5.3,3.1,2.2,0,2.6.4,2.6,3.1,0,1.7.4,2.8,1,2.4s1,.3,1,1.4c0,1.7.6,2.1,3.1,2.1,2.9,0,3-.1,2.4-3.2-.4-1.8-1.3-5.2-2.1-7.6a60.52,60.52,0,0,1-2-12.1c-.6-7.5-.5-8,1.9-10.7,2.6-2.7,2.7-2.7,4.7-.9,1.4,1.2,2,3.1,2,5.9,0,4.8.3,5.3,5.2,9,4.2,3.1,4.3,5.1.8,11.1a23.78,23.78,0,0,0-2.4,5.8c-.6,2.5-.4,2.7,2.3,2.7,2.5,0,3.2-.6,4.7-4.4,1.4-3.3,2.2-4.2,3.6-3.8,1,.2,1.8.8,1.8,1.3s1.1.9,2.5.9c2.2,0,2.4.3,1.9,3l-.6,3h13l-.5-4c-.5-3.3-.3-4,1.1-4,.9,0,1.6-.4,1.6-.8s1.3-1.3,3-1.9c2.9-1.1,2.9-1.1,5.2,4.8s2.4,5.9,6.1,5.9h3.9l-4.1-7.5-4-7.6,2.2-2.2a24.59,24.59,0,0,1,5.7-3.8c4.7-2.2,8.8-6.2,9.6-9.4a5.56,5.56,0,0,1,3-3.5c5.1-2,7.3-8.8,4.5-14.3-1.9-3.8-1.6-5.3.9-3.6.8.5,3.4.9,5.8.9,4.7,0,5,.6,2.4,4.1-5.4,6.9-17.4,31.7-20.7,42.6-1.3,4.2-1.3,4.3,1.1,4.3,1.5,0,2.4-.6,2.4-1.5,0-1.9,14.6-31.2,16.4-33a16.94,16.94,0,0,0,2.6-4.4c.7-1.7,1.6-3.1,2.1-3.1s.9-.6.9-1.3c0-1.2,4.8-8.3,7.5-11.3.5-.6,2.1-3,3.5-5.2s3.1-4.2,3.8-4.2a1.44,1.44,0,0,0,1.2-1.5c0-2,17.6-19.2,21.7-21.2,2.6-1.2,3.7-1.3,4.6-.4a4.07,4.07,0,0,0,2.5,1.1c.8,0,3.5,2.3,6,5.2,5.3,5.8,6.1,6.6,21.3,19.8,2.8,2.5,12.9,12.2,22.3,21.6,16.8,16.7,22.6,21.7,22.6,19.6,0-2.4-2.6-6.9-6-10.3-1.9-1.9-8-8.4-13.5-14.4s-16.3-16.2-23.9-22.8-15.7-14-17.9-16.5c-5-5.3-10.9-8.5-16.1-8.7-6.6-.2-6.8-2.4-.8-9,2.9-3.1,5.2-6.1,5.2-6.6s.5-.7,1-.4,1,1.8,1,3.3c.1,6.7,8.1,18.2,12.7,18.2,3,0,2.9-1.3-.3-4.5-4.6-4.6-7.4-12.4-7.7-21.1-.1-6.2-.5-7.9-1.7-7.9-.8,0-2.2,1.4-3,3.2-3.4,7.1-25.9,27.3-30.4,27.3-.3,0,1.4-3,3.6-6.7,5.9-9.7,9.1-19.4,9.2-27.8.1-5.6-.2-7-1.4-7s-1.7,1.7-2.3,6.4c-.7,6.2-6.3,22.1-7.7,22.1-.3,0-1.4-3.3-2.3-7.3-2.6-10.8-2.2-23.7,1.1-39.7l2.8-13.5,9.5-9.5c5.2-5.2,10.7-11.6,12.1-14.2,2.9-5.2,7.3-16.7,8.3-21.3.5-2.8.8-3,5.4-3H282l1.2,6a43.41,43.41,0,0,0,12,22.6c7.5,7.6,14.4,10.2,25.5,9.7,14.6-.6,24.8-7.7,31.2-21.6a59.12,59.12,0,0,1,5.6-9.8c4-4.3,4.4-5,7.2-13.5a68.58,68.58,0,0,0,3.1-15.9l.4-7.5,5,.3c5.3.4,6.8-1.1,2.8-2.7-6.5-2.6-14-3.3-24.4-2.6-6,.4-14.7.7-19.4.6-9.8-.2-13,.4-13,2.3,0,.8,1.7,1.6,4.6,2,15.6,2.1,25.5,14.2,25.7,31.1.2,22.3-18.8,37.1-39.8,31-10.5-3-19.2-13.9-22.5-28.2L286,185l4.6-4.4,4.5-4.5.6,3.6c1.3,8.8,2.7,14,4.1,16.1,2.9,4.1,3.4.8,1.5-9.4l-1.9-10,3.3-2.8a13.58,13.58,0,0,0,4-5.7c.4-1.7,1-3,1.5-3a8.7,8.7,0,0,0,2.3-.6c1-.4,1.8.8,2.6,4.2,3.3,13.1,12.8,22.7,24.4,24.9,2.5.5,3.9.1,6-1.5,3.8-3,3.4-4.1-1.6-3.4-7.6,1.1-16.7-4.9-21.3-13.8-3.7-7.4-3.3-8.1,2.9-5.3,6,2.9,7.7,3.1,7.7,1.1s-5.4-6-11.3-8.6c-5.2-2.3-5.1-2.1-3.7-7.1a10,10,0,0,0,0-6.4c-1.3-3.4-.5-4.4,6.5-9,7.1-4.8,15.8-6.9,22.1-5.5,5.6,1.3,12.9,4.3,13.8,5.8.3.6-1.2.4-3.8-.3-6.2-1.9-10.9-.4-7.3,2.2.6.5,3.9,1.7,7.2,2.7s8.4,2.9,11.4,4.2c6.5,2.9,8.1,3,8.1.5s-8.2-11.6-13.2-14.7c-2.1-1.4-3.8-3.2-3.8-4.2,0-6.8-10.4-25.4-18.7-33.4A147,147,0,0,1,327,83.49c-7.8-10.1-29.4-32.3-37.3-38.4-3.3-2.5-6.2-4.9-6.5-5.2-1.2-1.5-14-10.5-20-14-19.8-11.6-34.4-17.4-52.2-21C198.22,2.29,175.42,2.29,164.22,4.79Zm11,32.5c0,.9-.7,1.2-2,.9-1.1-.3-2-.9-2-1.4s.9-.9,2-.9S175.22,36.49,175.22,37.29Zm-14.7,1.3a1.94,1.94,0,0,0-1.3,1.7c0,.6-2.1,1.8-4.7,2.5a50.28,50.28,0,0,0-10.3,4.1,11.08,11.08,0,0,1-3.5,1c-.8,0-1.5.4-1.5,1s-2.4,1-5.2,1c-3.8,0-4.9-.3-3.8-1s1.2-1-.5-1c-3.2,0,.4-2,3.8-2,1.5,0,2.7-.5,2.7-1s.8-1,1.8-1a7.33,7.33,0,0,0,3.6-1.5,8.14,8.14,0,0,1,3-1.5c.6,0,.5.4-.3.9s-1,1.1-.2,1.5c.6.4,1.1.2,1.1-.3s.8-1.1,1.8-1.1c1.3,0,1.4-.2.4-.9s-.7-1,1.2-1.3c1.7-.3,2.3-.1,1.9.6s.3.3,1.3-.7,3.3-1.7,5.9-1.6C159.92,38,161.12,38.29,160.52,38.59Zm46.7,1.8q0,1.5-3,1.5c-4.7,0-3.5-2.7,1.3-2.9A1.51,1.51,0,0,1,207.22,40.39Zm-7.3.1a2,2,0,0,1-1.9.1c-.8-.3-.5-.6.6-.6S200.32,40.19,199.92,40.49ZM229.22,57a162.39,162.39,0,0,1,27.4,16.7c12.2,9.4,14.6,13.3,14.6,24.3q0,5.7-1.5,6.9a4.37,4.37,0,0,0-1.5,2.7c0,1.2-.8,1.4-3.4.9s-4-.2-6.3,1.8l-3,2.5-3.7-5.3c-4.4-6.4-9-10.8-17.2-16.1-3.3-2.2-6.9-4.6-8-5.3-1.6-1.1-1.2-1.2,3.1-.7a53.54,53.54,0,0,1,28.2,12.1c2.8,2.4,5.6,4.4,6.2,4.4,2.6,0,.7-3.7-4.3-8.7a33.92,33.92,0,0,1-8.1-12.1,54.92,54.92,0,0,0-7.3-13.2c-.2-.3-.9.3-1.6,1.2-1.2,1.6-1.7,1.5-7.9-.3q-6.6-2.1-7.2-3.9c-.3-1-3.5-4.6-7.1-7.9l-6.5-6.1,5.3,2.1C222.32,54.09,226.72,55.89,229.22,57Zm54.5,51.4c1.4,1.3,2.5,3.1,2.5,3.8,0,1.7,3.7,3,4.6,1.6.3-.5,1.9-.9,3.5-.9,3.6,0,7.9,4.2,7.9,7.8,0,1.3,1.4,4,3,5.9s3.1,4.4,3.1,5.6c.2,3.6-.2,6.1-1.2,7.1-1.5,1.6-1,4.1,1.1,6.9,4,5,1.7,13.3-3.8,13.9-2.3.3-2.8.8-3.2,4.3s-1,4.2-5.6,6.5a65.27,65.27,0,0,0-9.2,5.8,26.86,26.86,0,0,1-7.3,4.2c-2.6.8-3.4.5-5.4-1.4a12.59,12.59,0,0,0-6.6-2.9c-5.3-.7-9.1-3.5-10.3-7.6-.7-2.3-2.1-3.8-4.8-5.2a12.09,12.09,0,0,1-6.2-13.2c.5-3.2.3-4.1-1.5-5.3-3.5-2.5-2.4-11.3,1.5-13.7,1-.6,1.2-1.9.8-4.7-.5-3.3-.2-4.2,1.9-6.4a8.12,8.12,0,0,1,5.7-2.6,7.59,7.59,0,0,0,5.3-2.3c2.6-2.8,7.9-4.1,9.7-2.4.9.9,1.5.8,2.4-.7,2.1-3.7,5.5-6.6,7.6-6.6C280.42,105.89,282.42,107,283.72,108.39Zm-253.5,24a83.3,83.3,0,0,1-3.9,8.3c-6.8,13.5-12.3,33.7-13.6,49.4-.6,7.4-.8,7.7-2.7,6.7a2.29,2.29,0,0,1-1.4-2.5c.3-.8-.3-3.7-1.4-6.5-2.5-6.3-2.5-7.7.1-10.5,2-2.2,2.1-2.7.9-6.8-1.9-6.9-.9-15.6,2.3-20.5,1.6-2.3,4-4.6,5.5-5.2,3.1-1.2,4.2-2.6,4.2-5.4,0-2.2,2.1-4.3,6-6.2C29,131.89,30.22,131.69,30.22,132.39ZM362,162.69a46.29,46.29,0,0,1-1.9,14.5c-1.1,4.5-2.3,9.2-2.6,10.4-.9,4-2,2.5-2.6-3.7a49.65,49.65,0,0,0-2.9-11.8c-2.6-6.5-2.5-6.3-7.4-12l-3.7-4.3,10.4.3,10.4.3Zm-315.4,88.1c.3.4,2.6,1.4,5.1,2.1a21.27,21.27,0,0,1,5,1.9,12.18,12.18,0,0,1-.6,4.7c-1.3,5.6-1.2,17.6.2,22.6,4.3,14.9,19.8,24.1,47.4,28,11.3,1.6,54.8,1.6,66.4,0,4.7-.7,8.7-1,8.9-.7s-1.5,1.3-4,2.4-7.2,4.4-10.5,7.5-6.4,5.6-6.8,5.6-4.7-2.5-9.7-5.5-9.6-5.5-10.4-5.5c-1.1,0-1.3,1.1-.7,5.7l.6,5.8-4.6-3.8c-6-4.9-12.5-7.7-17.3-7.6a19.81,19.81,0,0,1-7.8-1.6c-7.3-3.1-9.2.6-2.2,4.4a28.29,28.29,0,0,1,6.2,4.2c1.7,1.8,1.6,1.9-2.3,1.9a52.36,52.36,0,0,0-7.2.6c-2.7.6-3.2.3-4.1-2-2.2-5.8-11.6-8.3-18.6-5-3.2,1.5-3.6,1.5-7.6-.6a41,41,0,0,1-6.2-3.8,37.78,37.78,0,0,1-8.5-14.1c-.9-3-1.6-4-2.3-3.3-2,2,2.6,31.1,5.9,37.5.8,1.6,1.2,3.1.9,3.5-2.1,2-13.6-19.1-16.2-29.6-1.5-6.3-1.5-22.8.1-29.8,1.2-5.3-1.2-5.1-6.8.3-5.9,5.7-10.1,8.7-13.6,9.8-1.8.5-1.1-.6,3-4.7,8.7-8.8,14.8-20.3,14.9-28.1,0-2.5.5-3.7,1.4-3.7A2.53,2.53,0,0,1,46.62,250.79Zm24.7,70.3c.8.3.7,1.7-.5,5a35.64,35.64,0,0,0-1.3,9.8c.2,4-.1,5-1.4,5s-1.8-1.3-2.2-4.4a125.09,125.09,0,0,0-3.7-13.8c-1.6-5.2-3-9.8-3-10.2s2.5,1.3,5.5,3.8A55.14,55.14,0,0,0,71.32,321.09Zm106.9-2.8a2.66,2.66,0,0,1-2.2,2.9c-1.3.3-3.3.9-4.5,1.2-3.5,1.1-2.7-.9,1.5-3.8C177.72,315.39,178.22,315.29,178.22,318.29Zm-51.3,4.9c3.4,2.3,7,5.7,8,7.4s2.1,3.3,2.5,3.3.8,1.1,1,2.5c.2,1.9.6,2.2,1.8,1.5,1.7-1,2-8.1.7-14.3l-.8-3.9,4.3,2.7a62.31,62.31,0,0,0,7.1,3.7l2.7,1-4.2,2.2c-3.3,1.6-4.9,3.3-6.9,7.4-1.4,2.9-3.5,6-4.7,6.8-2.6,1.8-5.2,6.5-5.2,9.2a4.74,4.74,0,0,1-1.6,3.3,27.18,27.18,0,0,0-4.1,5.3c-2.2,3.5-2.5,4.7-2.1,12.2.1,4.6-.1,8.4-.5,8.4s-2.4-1.3-4.3-3c-2.6-2.2-4-4.7-5.2-8.8-1.8-6.8-2.3-7.4-9.3-14.9-8-8.6-9-11.2-7.7-20l1.1-7.1,5.2-.7a26.63,26.63,0,0,0,7.8-2c2.5-1.3,2.8-1.2,4.6,1.1a34.53,34.53,0,0,1,3.7,7c1.8,4.6,2.5,5.2,4.2,3.1s-.8-10.3-4.7-14.9C115.92,316.59,117.82,317,126.92,323.19Zm54.1,5.7c3.7,3.4,5.1,4,8.7,4,4.8,0,6.2,1.2,7.2,6,.3,1.9,2,4.5,3.9,6.2,4,3.5,6,8.8,4.5,11.7-.6,1.1-2.7,2.5-4.6,3.2-2.5.9-3.7,2.1-4.1,3.9-.3,1.4-.7,3-.9,3.7-.6,1.8-5.1,4.5-8.8,5.2-2.3.5-3.3,1.3-3.5,2.9-.4,2.4-4.8,5.2-8.3,5.2-1.1,0-3.4,1.1-5.1,2.5a10.17,10.17,0,0,1-13.8-.3c-1.7-1.5-3.2-3.4-3.3-4.2-.4-2.6-1.7-4-3.7-4-3.6,0-5.2-5.9-2.5-8.6,2.4-2.4,1.8-4.3-2-5.8s-6-5.5-5-8.7a10.56,10.56,0,0,1,3.6-3.9c1.6-1.2,2.9-3,2.9-4.1,0-2.4,1.4-5.2,4.3-8.5,1.6-1.9,2.8-2.3,4.6-1.9s3,0,4.6-1.9c2.5-3,7.1-5,8-3.6,1,1.6,3,1.2,5.5-1a11.16,11.16,0,0,1,2.9-2A26.76,26.76,0,0,1,181,328.89Z" transform="translate(-0.09 -2.93)"/><path d="M122.22,75.09c.1,18.2,27.1,35.6,51.6,33.3,4.6-.4,8.2-1.3,9.5-2.4,2-1.6,1.7-1.7-8.7-1.7-14.5.1-27.9-4.1-37.5-11.6-4.3-3.2-9.5-10.9-10.4-15.3-1.3-5.8-1.6-6.5-3.1-6.5C122.62,70.89,122.22,72.09,122.22,75.09Z" transform="translate(-0.09 -2.93)"/><path d="M102.42,75.69c-4.3,14.4,3.8,27.6,20.8,34,15.2,5.8,40.5,6.7,58.3,2.1,4.3-1.1,5-2.9,1-2.3-6.2.8-34.3.5-40.8-.6-18.5-2.9-29.7-8.6-34.2-17.3-1.4-2.7-1.9-10.1-1.1-16.7C106.92,70.59,103.72,71.19,102.42,75.69Z" transform="translate(-0.09 -2.93)"/><path d="M166.72,82.89c-.4.6,1.1,2.5,3.2,4.3,5.7,4.8,23.6,22.9,25.3,25.6.8,1.3,2.9,4.2,4.6,6.5,4,5.4,11.5,20.9,15.2,31.6,5.4,15.6,7.6,27.9,7.6,44s-1.1,21.9-4.9,24.8c-4.7,3.7-2.2,5.6,3.5,2.7a20.91,20.91,0,0,0,5.4-4.7c2.8-3.4,2.6-1.4-.3,3.2-6.9,11.2-13,17-17.9,17-3,0-2.4,2.4.6,2.8,9.4,1.4,22.3-13.4,26.7-30.7,1.7-6.3,2.5-30.8,1.2-35.4-.4-1.5-1.3-2.7-2.1-2.7-1,0-1.5,2.6-1.9,10.2-.5,10-3.6,23.1-5.9,25.3-.8.7-.9.4-.3-1,1.7-4.6,1.8-21.3,0-31.6-2.8-17.5-13.5-46.6-20.3-55.4-.9-1.3-2.4-3.3-3.2-4.5-5.7-8.7-21-24.2-29-29.4C168.32,81.59,167.62,81.39,166.72,82.89Z" transform="translate(-0.09 -2.93)"/><path d="M87.82,85.39a12.76,12.76,0,0,0-.6,3.4,18.1,18.1,0,0,1-2,5.6c-4.5,8.7-11.3,33.1-14.5,51.8-.5,3.3-.8,3.7-3,3.1-3.8-.9-4.6,2.3-1.2,5,2.5,2,2.6,2.5,2.9,14.9.2,7,0,12.7-.3,12.7-1,0-5.7-11-6.8-16a43.12,43.12,0,0,1-1.1-8.3c0-4.7-2-4.6-3.3.3-1.4,5.5,1.8,17.4,6.3,23.5,3.9,5.3,7.8,8.5,10.5,8.5,2,0,1.9-.9-.2-3.2-1.5-1.7-1.7-3.8-1.4-14.6.1-7,.4-12.9.7-13.1s3,.4,6.1,1.4c6.9,2.2,21.4,2.7,22.1.7.2-.8,2.3.5,5.5,3.4,5.9,5.3,11.5,8.4,15.2,8.4s3.1-1.4-1-2.9c-1.9-.7-6-3.5-9-6.3-4.4-4-6.7-7.3-10.5-15.2a118.26,118.26,0,0,1-11.9-55.1c.1-5.3-.2-9-.8-9.2S88.22,84.49,87.82,85.39Zm2.3,44.7c2.6,9.2,6.4,18.7,9.8,24.5l2.5,4.3h-2.3c-2.8,0-22.9-4.8-24.7-5.9-1-.6-.7-3.5,1.3-14.2,2.4-12.4,5-23.6,7.7-33.4,1.1-3.9,1.2-3.8,2.4,6.5A167.45,167.45,0,0,0,90.12,130.09Z" transform="translate(-0.09 -2.93)"/><path d="M185.42,115a47.37,47.37,0,0,1-3.5,5.5l-1.9,2.4-3.6-3.1c-4.3-3.8-5.8-2.2-1.8,2,1.4,1.5,2.6,3.2,2.6,3.9,0,1.4-8.2,9.8-13.3,13.7l-3.9,2.9-5.5-5.7c-5.1-5.3-7.3-6.3-7.3-3.4,0,.7,2,3.4,4.5,6.2,5,5.5,5.2,6,2.8,7-1.3.4-2.5-.2-4.1-2.2-3.9-4.7-14-20-14.7-22.2s-2.9-2.8-3.9-1.2c-2.4,3.9,20.9,34.7,27.5,36.4,2.6.7,2.4-.5-.6-3.3-3.2-3-3.1-3.8.1-4.6,1.9-.5,3.2,0,5.2,1.8a15.79,15.79,0,0,0,4.5,3.1c2.9,1,2-1.9-1.5-4.8l-3.2-2.7,3.5-2.6c1.9-1.4,5.8-5,8.8-7.9s5.7-5.3,6-5.3a30.35,30.35,0,0,1,4.3,4.8c6.2,7.8,16.7,18.6,17.4,17.9.4-.4-.5-2.5-2-4.8-2.9-4.4-15.5-19.2-16.8-19.7s-.9-2.6,1.2-7c2.7-5.5,3.6-10.2,2.1-10.2C187.62,111.89,186.32,113.29,185.42,115Z" transform="translate(-0.09 -2.93)"/><path d="M105.22,116.59c0,8.8,7.3,26.8,14.7,36.2,6.8,8.7,18.3,15.5,23,13.7,1.4-.6.5-1.4-4.2-3.6a50.72,50.72,0,0,1-10.2-6.4c-6.4-5.6-13.4-17.8-17.9-31.1C106.72,114,105.22,111.49,105.22,116.59Z" transform="translate(-0.09 -2.93)"/><path d="M176.42,162.09c-2.8,2.8-.5,18.3,6,39.8,2.2,7.4,4.8,15.3,5.8,17.5s2.5,5.9,3.5,8.3c2.2,5.2,5,7.1,7.3,4.8,1.4-1.3,1.3-2.8-.7-15.3-2.3-14-10.2-47.1-12.6-53.1-1.2-2.7-1.9-3.2-4.7-3.2C179.12,160.89,177.12,161.39,176.42,162.09Z" transform="translate(-0.09 -2.93)"/><path d="M88.22,183.89c-2.2,1.4-2,21.1.3,31.2,2.8,12.1,7.2,25,10,29.5,2.5,4,6.1,6,7.3,4.2,1.5-2.5-7.7-53.2-11.3-62.2C93,182.89,91.12,182,88.22,183.89Z" transform="translate(-0.09 -2.93)"/><path d="M318.22,227.29c0,3.5,4.3,12.4,8.1,16.9,4.3,5,9.2,8.1,17.4,10.9l5,1.8-6.4-.4c-5.2-.4-7-1-10.1-3.5-4.4-3.5-8-4.1-8-1.3a6,6,0,0,0,2,3.7,19.42,19.42,0,0,1,3.6,5.1,30.59,30.59,0,0,0,4,5.9,12.76,12.76,0,0,1,2.4,3.2c0,1.2-13.7-.6-16.8-2.2-1.8-.9-5.8-4.2-8.8-7.3-5.9-6.1-7.3-6-7.4.3-.1,5.7-1.8,10.5-6.5,18.1-2.6,4.1-4.9,7.3-5.2,7s.3-5.6,2.3-16.9c.6-3.6.6-3.9-1.6-3.5-2,.2-2.7,1.4-4.2,7.3-2.8,10.6-3.4,25.8-1.4,32.6,1.7,5.9,3.1,7.7,6.5,8.4,2.6.5,2.6.2.1-4.9a29.28,29.28,0,0,1-2.1-10.9l-.2-6.8,5.4-4.8c5.7-5.1,10.9-13.9,10.9-18.5,0-3.4,1-3.3,4.9.8,5,5.1,10.6,6.9,19.9,6.2,8.6-.6,15.2-1.6,15.2-2.3,0-1.6-2.3-4.2-4.2-4.7a9.47,9.47,0,0,1-4.2-3.2l-1.9-2.6,4.3.7a22.23,22.23,0,0,0,8.8-.6c5.6-1.5,12.2-6.3,12.2-8.9,0-1.7-.6-1.8-4.9-1.3-6.1.7-16.4-2.5-22.3-7-2.3-1.8-6.5-6.6-9.3-10.7C320.52,226.39,318.22,224.39,318.22,227.29Z" transform="translate(-0.09 -2.93)"/><path d="M172.22,253c-17,3.8-36.2,11.6-41.7,16.8-2.8,2.6-2.8,4.3-.4,9.7,2.7,6,10.6,11.4,16.7,11.4,3.6,0,2.9-1.7-1.8-4.1-5.2-2.6-8.4-5.5-10.3-9.1-2.2-4-1.9-5.4,1.9-7.6,9-5.3,47.4-15.8,49.6-13.6,1.4,1.4-.7,9.1-5.2,18.7-2.2,4.9-3.8,9-3.6,9.2s1.8-.4,3.5-1.5c4.4-2.7,10.5-15.3,11.1-22.9C192.72,250.39,189.32,249.09,172.22,253Z" transform="translate(-0.09 -2.93)"/><path d="M61.32,357.79c-1.7,1.1-.5,3.1,1.9,3.1a3.15,3.15,0,0,1,2.4.9c.3.5,1.8,1.1,3.3,1.4a35.9,35.9,0,0,1,5.2,1.3c2.2.6,2.2.5,1.1-1.5-1.2-2.2-8.1-6-11-6.1A6.52,6.52,0,0,0,61.32,357.79Z" transform="translate(-0.09 -2.93)"/><path d="M310.42,363.89a15.53,15.53,0,0,1-4.2,2c-.5,0-4.9,3.9-9.9,8.7-6.3,6-9.1,9.4-9.1,11,0,2.1.6,1.8,7.6-3.1a226.18,226.18,0,0,0,19.2-15.4c2.4-2.1,3-5.2,1-5.2A14.14,14.14,0,0,0,310.42,363.89Z" transform="translate(-0.09 -2.93)"/><path d="M125.72,396.89a2.34,2.34,0,0,0,1.6,1c.6,0,.7-.5.4-1a2,2,0,0,0-1.6-1C125.52,395.89,125.42,396.29,125.72,396.89Z" transform="translate(-0.09 -2.93)"/><path d="M518.56,162c-4.76-16.25-11.49-38.38-38.66-38.38-20.17,0-30.26,13.16-30.26,31.37,0,23.54,17.09,32.78,35.3,42,12.33,6.16,46.79,18.21,46.79,53.23,0,29.13-22.42,50.14-57.72,50.7-11.48-.56-21.29-2.24-28.29-4.48-6.72-2.24-10.37-4.2-12.05-5.32-2.24-7.29-5-27.46-6.72-44.27h4.48C435.91,262,448,293.7,480.74,293.7c21.57,0,34.74-11.77,34.74-36.42,0-28.3-23-37.82-37.82-46.23-2.52-1.4-43.71-14.56-43.71-48.74,0-23.25,19.05-45.11,52.11-45.11,9.25,0,17.37.84,32.78,5.89,1.12,9.52,2.52,19.89,4.48,38.94Z" transform="translate(-0.09 -2.93)"/><path d="M548,292.86c17.09-1.12,20.17-5.32,20.17-22.69V138.49c0-17.64-1.68-18.77-21-22.41V113c12.61-2.24,26.9-6.44,34.46-9.52v95.25c11.21-11.77,27.17-21.57,43.7-21.57,21.58,0,37.54,14,37.54,46.22v46.79c0,17.65,3.09,21.57,20.17,22.69v3.92H628.1v-3.92c18.77-1.12,21.29-5.32,21.29-24.37V230.1c0-26.33-7.85-40.34-34.46-40.34-13.17.84-25.5,6.45-33.34,16.25v62.48c0,19.05,2.8,23.25,22.13,24.37v3.92H548.25Z" transform="translate(-0.09 -2.93)"/><path d="M696.17,292.86c17.93-1.4,20.73-5,20.73-21.29V213.29c0-17.92-2-19.33-17.93-22.13v-3.64a113.53,113.53,0,0,0,31.38-11.2v95.25c0,16.25,2.8,19.89,21,21.29v3.92H696.17Zm38.38-166.41c0,5.88-4.76,11.2-10.65,11.2-5.6,0-10.64-5.32-10.64-11.2,0-6.73,5-11.77,10.64-11.77C730.35,114.68,734.55,120.56,734.55,126.45Z" transform="translate(-0.09 -2.93)"/><path d="M764.52,292.86c17.09-1.12,19.89-5,19.89-22.69V215.26c0-20.45-2-22.14-19.33-24.1V187.8c11.49-2.24,22.7-5.6,32.78-11.76v34.17h.56c6.72-15.12,21.85-33.05,35.58-33.05,8.4,0,13.73,7.28,13.73,11.76,0,5.33-5.61,10.37-9.81,10.37a2.45,2.45,0,0,1-2.52-1.4C831.2,194,829,192,823.63,192c-7.56,0-18.49,12.61-25.77,33.06v45.67c0,17.37,2.52,21,24.93,22.13v3.92H764.52Z" transform="translate(-0.09 -2.93)"/><path d="M942.7,299.86a25,25,0,0,1-9-5c-3.36-3.64-4.48-7-6.16-13.17-10.93,8.41-23.53,18.21-33.9,18.21-19.33,0-32.5-14.57-32.5-31.94,0-12.6,8.69-21.57,28-27.45,14.29-4.2,31.94-10.93,38.38-14.85,0-13.73-.28-38.1-25.49-38.1-4.49.28-19.62,1.4-24.38,23.81a6.2,6.2,0,0,1-6.16,4.77c-3.92,0-8.41-3.93-8.41-9.53,0-4.2,3.37-7.56,7.85-10.08,7-4.77,25.77-16.25,39.5-19.33,13.73,0,31.1,9,31.1,33.61V271c0,11.48,4.2,16,10.08,16A23.75,23.75,0,0,0,964,283.33l2.52,4.77Zm-15.13-67.23c-5.88,3.36-23.53,10.08-29.7,12.6-12.6,4.77-20.17,10.09-20.17,20.45,0,14.57,11.77,22.14,21.85,22.14,9.53,0,22.14-7,28-14.29Z" transform="translate(-0.09 -2.93)"/><path d="M972.11,292.86c17.09-1.12,20.17-5.32,20.17-22.69V138.49c0-17.64-1.68-18.77-21-22.41V113a196.54,196.54,0,0,0,34.46-9.52v95.25c11.2-11.77,27.17-21.57,43.7-21.57,21.57,0,37.54,14,37.54,46.22v46.79c0,17.65,3.08,21.57,20.17,22.69v3.92h-54.91v-3.92c18.77-1.12,21.29-5.32,21.29-24.37V230.1c0-26.33-7.84-40.34-34.45-40.34-13.17.84-25.5,6.45-33.34,16.25v62.48c0,19.05,2.8,23.25,22.13,24.37v3.92H972.39Z" transform="translate(-0.09 -2.93)"/><path d="M1204.63,299.86a25,25,0,0,1-9-5c-3.37-3.64-4.49-7-6.17-13.17-10.92,8.41-23.53,18.21-33.9,18.21-19.33,0-32.49-14.57-32.49-31.94,0-12.6,8.68-21.57,28-27.45,14.29-4.2,31.94-10.93,38.38-14.85,0-13.73-.28-38.1-25.49-38.1-4.48.28-19.61,1.4-24.38,23.81a6.2,6.2,0,0,1-6.16,4.77c-3.92,0-8.4-3.93-8.4-9.53,0-4.2,3.36-7.56,7.84-10.08,7-4.77,25.77-16.25,39.5-19.33,13.73,0,31.1,9,31.1,33.61V271c0,11.48,4.2,16,10.08,16a23.72,23.72,0,0,0,12.33-3.64l2.52,4.77Zm-15.13-67.23c-5.88,3.36-23.53,10.08-29.69,12.6-12.61,4.77-20.18,10.09-20.18,20.45,0,14.57,11.77,22.14,21.86,22.14,9.52,0,22.13-7,28-14.29Z" transform="translate(-0.09 -2.93)"/><path d="M1490.38,206.57c0,55.75-44.55,94.41-97.78,94.41-51.27,0-92.73-37.82-92.73-89.65,0-47.06,36.42-94.13,98.9-94.13C1445.55,117.2,1490.38,152.22,1490.38,206.57Zm-170.9-3.36c0,54.63,34.46,91,79.85,91,37.82,0,72-26.05,72-75.92,0-63.6-35.58-94.41-80.69-94.41C1353.38,124.21,1319.48,149.14,1319.48,203.21Z" transform="translate(-0.09 -2.93)"/><path d="M1511.38,338.24c24.65-9.52,33.06-25.21,33.06-87.4v-97.5c0-21.85-1.68-26.61-27.46-28v-3.92h67.24v3.92c-23,1.4-25.21,6.16-25.21,28V261.76c0,56-15.69,68.08-46.23,81Z" transform="translate(-0.09 -2.93)"/></svg>