<svg id="图层_1" data-name="图层 1" xmlns="http://www.w3.org/2000/svg" viewBox="0 0 1599.14 247.66"><title>未标题-1</title><path d="M114.7,126.18v71.4q0,10.71,7.77,13.66,5.09,2,30.81,2,36.83,0,60.54-3.49a38.62,38.62,0,0,1,5.22-.53q6.57,0,9.65,4.55a9.08,9.08,0,0,1,1.6,5.36q0,9.38-9.24,11.12-20.49,3.62-62.41,3.61-38.31,0-49-3.34-11.65-3.63-15-14.2A47.16,47.16,0,0,1,93,202.8V128.73l-60.94,6.83a8,8,0,0,1-1.74.13q-9.24,0-9.24-9.77,0-7.9,9.37-9L93,109.71v-70a8.79,8.79,0,0,1,3.62-7.5,12.74,12.74,0,0,1,14.73.4,8.65,8.65,0,0,1,3.35,7.1v67.5L242.22,92.3c.8-.09,1.38-.14,1.74-.14q9.64,0,9.64,9.78,0,8.44-9.37,9.51Z" transform="translate(-21.08 -14.61)"/><path d="M295.12,90.56q7.77,0,27.06,12.18a81.16,81.16,0,0,1,8.57,6q5.22,4.42,5.23,9.91a11.07,11.07,0,0,1-2.15,6.43,8.35,8.35,0,0,1-7.36,3.75q-4.7,0-9.65-5.22a166.8,166.8,0,0,0-24-20.23c-2.6-1.69-3.89-3.79-3.89-6.29a6.92,6.92,0,0,1,1.61-4.42A5.58,5.58,0,0,1,295.12,90.56Zm37,71.79q8.45,0,8.44,7.77,0,4-4.69,16.74-11.93,32.55-22.37,49c-2.77,4.38-6,6.57-9.78,6.57a10.25,10.25,0,0,1-6.42-2.28,9.14,9.14,0,0,1-3.89-7.64q0-3.74,4.82-11.25,14.21-21.69,26.12-52Q327.14,162.35,332.09,162.35ZM309.32,32.29q3.62,0,11.39,3.62,28.4,12.86,28.39,24a10.57,10.57,0,0,1-2,6,9.16,9.16,0,0,1-8.17,4.29q-4.82,0-9.51-5.76a86.06,86.06,0,0,0-22.37-19c-2.68-1.7-4-3.89-4-6.57Q303,32.29,309.32,32.29ZM490.14,212q1.88.41,5.09,1.21,14.07,3.08,21.7,6.29t7.5,8.44a13.54,13.54,0,0,1-1.07,5,7.74,7.74,0,0,1-7.5,4.95q-2,0-13.13-3.61-4-1.49-13.12-3.75l-2.55-.67c-.53,2.77-1.12,5.71-1.74,8.84q-4.15,21.42-16.07,21.43-8.17,0-24.65-7a86.31,86.31,0,0,1-10.71-5.09q-3.88-2.28-3.89-5.76,0-5.76,6.3-5.76a19.79,19.79,0,0,1,5.22.94q14.6,4,18.62,4,4.42,0,6.16-5.36a97.83,97.83,0,0,0,2.28-10.31,573.68,573.68,0,0,0-88.4-10.32q-18.09-.79-18.09-12.19,0-3.21,3.35-14.06,3.22-10.31,7.64-28l-22.91.67q-9.92.27-9.91-8T349,145.2l28-.93.94-4.29q4.68-22.09,7.63-43.53,1.22-9.37,9.38-9.38,6.55,0,8.57,5.09l81.57-5.62c1.07-.09,1.83-.14,2.28-.14q14.73,0,14.73,15.67,0,4.56-1.2,18.89l-1.48,19.15,28.53-.93q10.05-.27,10.05,8.44t-9.24,8.84l-31.08.93Q493.89,188.07,490.14,212ZM405.89,52.52l99.79-8.58H507q9.11,0,9.11,8.17,0,8.72-9.38,9.51l-111,8.44q-11.65,18.22-23.17,29.07-4.69,4.56-8.17,4.55a6.55,6.55,0,0,1-4.29-1.87,7.32,7.32,0,0,1-2.67-5.23c0-1.78,1-3.79,3.08-6q10.44-11.11,20.76-30a244.28,244.28,0,0,0,16.07-35.09q2.55-7.77,8.57-7.77a13,13,0,0,1,4.69.94q6.17,2.28,6.16,7.9Q416.74,31.09,405.89,52.52Zm17.68,107.15-32.14,1.07-3.49,15.54q-3.21,13.26-3.88,16.47a8.2,8.2,0,0,1-.27,1.34,14.06,14.06,0,0,0-.27,2.41,2.18,2.18,0,0,0,1.61,2.28c.63.27,4.24.63,10.85,1.07s13.26,1,20,1.61l.27-1.21Q419.56,185,423.57,159.67Zm7.77-52.91-29.2,1.74q-.27,2-.8,5.36-1.47,9.12-4.82,24.51l-1.21,5.36,30.81-1.07,2-12.46Q430.14,117.21,431.34,106.76Zm10.85,52.37q-4.15,26-8.3,44.2,27.32,3.36,37.9,5.23,3.88-24.78,6.3-45.54l.67-5Zm7.1-53.57q-.81,11-4.42,36.43l35.76-1.21q1.74-16.87,2.82-31.74v-1.21c0-2.85-1.48-4.19-4.42-4Z" transform="translate(-21.08 -14.61)"/><path d="M683.42,73.14q2.94,6.17,3,18.22,0,40.05-31.34,89.87-23.31,37-43.67,37-14.34,0-25.45-14.6-14.19-18.48-14.2-48.22,0-30.93,23.85-57.73A121.58,121.58,0,0,1,642,65.37,136.89,136.89,0,0,1,694,55.2q37.77,0,62.69,22.77,26.79,24.38,26.79,62.81,0,34.83-21.84,60.68Q745.17,221,719.85,231.2a20.35,20.35,0,0,1-7.5,1.74,7.05,7.05,0,0,1-6.16-2.82,6.76,6.76,0,0,1-1.47-4,7.93,7.93,0,0,1,2.68-5.63q1.33-1.2,10.71-6.56a84.74,84.74,0,0,0,26.12-23q17.28-22.37,17.28-49.69,0-32-22.9-52A65.44,65.44,0,0,0,694.4,72.74l-10.17.4h-.81Zm-18.21,3.22q-39.8,11-60.55,40.31Q591.4,135.44,591.4,155q0,21.3,9.11,35.23,5.76,8.83,11.12,8.84,9.78,0,24.11-22a213.12,213.12,0,0,0,23.44-48.62Q666,107.83,666,91.36,666,86.8,665.21,76.36Z" transform="translate(-21.08 -14.61)"/><path d="M971.67,121.63l1.6,1.21a421.92,421.92,0,0,0,43.13,28.93q26.79,15.66,46.48,23.44,7.5,2.94,7.5,5.89,0,2.55-4.55,4.15-12.87,4.56-20.36,4.56-6.17,0-16.88-7.1a576,576,0,0,1-76.48-60.14l-18.75.94q-24.51,32.53-71,58-25.18,13.94-30.94,13.93-6.7,0-6.7-6.83a7.1,7.1,0,0,1,3.35-5.89,67.33,67.33,0,0,1,7.23-3.75,230,230,0,0,0,71.13-54.11l-59.74,3.08a8.72,8.72,0,0,1-5.36-1.48c-2.68-1.69-4-3.93-4-6.69a8,8,0,0,1,3.89-7.1,8.2,8.2,0,0,1,3.88-1.21l74.61-4a121.29,121.29,0,0,0,11.11-21.16q-45.67,4.42-54,4.42-7.5,0-10.31-5.63a19.94,19.94,0,0,1-2.41-8.84,9.45,9.45,0,0,1,2.81-6.69c.63-.81,2.73-2.5,6.3-5.09a376.42,376.42,0,0,0,48.22-42.6q5.76-6,10.58-6a9.61,9.61,0,0,1,6.16,2.41,8.52,8.52,0,0,1,3.62,7q0,5.1-6.57,11a411.39,411.39,0,0,1-46.34,36.29Q954.79,69.13,996,62.7q-9.78-9.12-16.87-14.6c-2.68-2.06-4-4.42-4-7.1A7.1,7.1,0,0,1,977,36.18a7,7,0,0,1,5.49-2.68q3,0,9,4.15Q1036,68.6,1036,80.78a8.51,8.51,0,0,1-2.41,6,10.57,10.57,0,0,1-7.91,3.75q-4.68,0-10.71-7.5-2.68-3.5-6.3-7.51-26.52,4.83-55.18,8l-2.68.27a11.07,11.07,0,0,1,1.07,4.42q0,4.69-7.1,17.81l94.83-5.09h.54a7.62,7.62,0,0,1,6,2.28,8,8,0,0,1,2.41,5.89q0,5.63-4.69,8a5.56,5.56,0,0,1-2.95.8Zm30.4,73.54a8.88,8.88,0,0,1,7.1,3.61,9.94,9.94,0,0,1,2.41,6.43q0,4.56-5.22,8.71-22.25,17.94-60.55,32A301.18,301.18,0,0,1,882.73,262a31.84,31.84,0,0,1-3.35.27q-7.36,0-7.37-7.5a5.71,5.71,0,0,1,3.22-5.36q1.34-.79,12.19-2.95,27.32-5.62,60.67-21.16a275.65,275.65,0,0,0,45.14-26.52Q998,195.17,1002.07,195.17Zm-48.62-55.32a8.49,8.49,0,0,1,6.83,3.48,10.11,10.11,0,0,1,2.41,6.29q0,3.76-4.28,7.91t-15.54,11.11a239.8,239.8,0,0,1-56.53,25.86,21.41,21.41,0,0,1-5.49,1.07,6.1,6.1,0,0,1-6-4.16,9.45,9.45,0,0,1-.94-3.75A5.51,5.51,0,0,1,876.7,183q1.34-.94,8.57-3.49,20.1-6.83,45.54-24.91,7.63-5.49,13.8-10.72Q949.29,139.85,953.45,139.85Zm21,27.32q3.21,0,6.16,3.08a9.26,9.26,0,0,1,2.68,6.56q0,5-6.43,10.05-13.8,10.59-37.77,21.83a262,262,0,0,1-49.29,17.68,18.57,18.57,0,0,1-4.29.67q-7.63,0-7.63-7.9,0-3.62,2-5t11.92-4.22q34.81-10.18,72.06-37.77Q970.59,167.17,974.48,167.17Z" transform="translate(-21.08 -14.61)"/><path d="M1213.7,138.24q33.88-9.37,57.59-19a18.22,18.22,0,0,1,6.84-1.47q9.49,0,9.5,9.1,0,7.52-12.59,11.52-25.44,8-64.56,15.27a82.47,82.47,0,0,1-2.14,8.17,9.31,9.31,0,0,0-.53,2.95q0,2.81,4.42,2.81c.71,0,1.56,0,2.54-.13l57.6-5.23c2.14-.17,3.7-.26,4.68-.26q16.62,0,16.61,14.86,0,8.72-5.49,30.14-7.1,28.13-14.73,40.59t-20.9,12.32q-15.4,0-39.64-12.06-7-3.48-7-8.17a6.43,6.43,0,0,1,.8-3.08q1.88-3.88,6.57-3.88a17.87,17.87,0,0,1,5.76,1.34q15.93,5.63,26.78,5.62a12.46,12.46,0,0,0,11.39-6.56q6.69-11.65,12.06-35.09,2-9,2-12.46c0-3.39-2.09-5.09-6.29-5.09-.72,0-1.74,0-3.08.14l-56.79,5.22a55.17,55.17,0,0,1-5.76.27q-15,0-15-10.18a25.33,25.33,0,0,1,2-8.71,153.68,153.68,0,0,0,7.36-25.45,572.44,572.44,0,0,1-73.4,40.05q-10.18,4.56-13,4.55-6.84,0-6.83-7.36,0-3.89,4-6.57a94.83,94.83,0,0,1,9.24-4.55,507.64,507.64,0,0,0,95-56.39l-96,7.77q-9.37-.27-9.38-8.57,0-7.91,7.9-8.44L1200.44,95V67.92L1154.9,71.4q-9.11-.14-9.11-8.17,0-7.63,7.77-8.3l46.88-3.49V25.33a7.79,7.79,0,0,1,2.28-5.76q2.8-3,7.9-2.95,5.89,0,8.7,4.15a8.64,8.64,0,0,1,1.21,4.56V49.84l34-2.55q8.7-.66,8.71,8.31,0,7.36-7.1,7.9l-35.63,2.81V93.37l11.92-.94c1-.8,2.37-2,4.15-3.62a485.7,485.7,0,0,0,49.29-48.75q5.49-6.16,10.18-6.16a9.09,9.09,0,0,1,5.5,1.87,8.52,8.52,0,0,1,3.48,6.83q0,4.69-6.83,12.19-14.74,16.21-36,35.36l65.36-5.22c.54-.09.85-.13.94-.13q5.63-.4,7.63,5a9.93,9.93,0,0,1,.67,3.62q0,7.91-7.63,8.57l-89.74,7.1q-11.65,9.24-21.84,16.61l-2.68,1.87A80.85,80.85,0,0,1,1213.7,138.24Z" transform="translate(-21.08 -14.61)"/><path d="M1503.82,106.5v12.59l65.36-3.76q8.44,0,8.44,6.7t-6.83,7.24l-67,3.88V146l93.89-5.23q8.7,0,8.71,7.24a7.49,7.49,0,0,1-2.08,5.29,7.12,7.12,0,0,1-5,2.34l-208.15,11.52a7.87,7.87,0,0,1-3.88-.67,6.74,6.74,0,0,1-4.15-6.7q0-7,7.76-7.5l93.23-5.09V134.35L1420,138.11h-.67q-7.1,0-7.1-7.1,0-6.7,7.5-7.24l64.43-3.61V107.57l-66.71,3.61q-7.89.41-7.9-6.83,0-6.42,6.83-6.83l67.78-3.88V80l-106,6.3h-.67q-7.77,0-7.77-7.1t7.37-7.5l107-6.56V52.25l-67,4.42h-.54a7.14,7.14,0,0,1-4.55-1.34,6.52,6.52,0,0,1-2.82-5.63,7,7,0,0,1,4.83-7.1,12.18,12.18,0,0,1,2.54-.53l67.51-4.15V23.72a8.37,8.37,0,0,1,3.08-6.83,10.28,10.28,0,0,1,6.7-2.28,9.8,9.8,0,0,1,8,3.62,8.37,8.37,0,0,1,1.88,5.49v13l50.49-3.08c1-.09,2.19-.13,3.62-.13q16.88,0,16.88,12.59a32.47,32.47,0,0,1-.94,7.23l-1.61,6.43,38-2.28q9.92-.66,9.91,7.37,0,7.23-8,7.63l-43.53,2.68L1565.3,89q8,.4,8,7t-7,7.1ZM1547.35,247l-104.07,5q-.54,8.57-10,8.57-7.77,0-8.57-8.84l-6.43-68.85V181.5c0-5.17,3-7.77,9.11-7.77,5,0,8.08,1.93,9.24,5.76L1553,171.86c1.16-.09,2.32-.14,3.49-.14q16.61,0,16.61,15.14c0,1.07-.09,2.55-.27,4.42l-7.24,61.21q-.93,8.31-8.57,8.31-10.17,0-10.18-8a14.47,14.47,0,0,1,.14-1.61Zm5.22-45,.94-9a13.76,13.76,0,0,0,.13-1.61c0-3.66-1.87-5.26-5.62-4.82h-.54l-109.29,7.5,1.34,14.74ZM1551,215.66l-110.23,6.7,1.34,15,107-4.83ZM1503.82,63.9,1553.64,61l.94-6a11.13,11.13,0,0,0,.27-2c0-3.22-1.74-4.82-5.22-4.82h-1.08L1503.82,51Zm0,28.53,45.27-2.54,2.14-13.8-47.41,2.81Z" transform="translate(-21.08 -14.61)"/></svg>