<?xml version="1.0" standalone="no"?>
<!DOCTYPE svg PUBLIC "-//W3C//DTD SVG 20010904//EN"
 "http://www.w3.org/TR/2001/REC-SVG-20010904/DTD/svg10.dtd">
<svg version="1.0" xmlns="http://www.w3.org/2000/svg"
 width="160.000000pt" height="160.000000pt" viewBox="0 0 160.000000 160.000000"
 preserveAspectRatio="xMidYMid meet">
<metadata>
Created by potrace 1.11, written by Peter Selinger 2001-2013
</metadata>
<g transform="translate(0.000000,160.000000) scale(0.100000,-0.100000)"
fill="#000000" stroke="none">
<path d="M747 1510 c-21 -6 -48 -15 -60 -22 -12 -7 -50 -15 -84 -19 -78 -8
-159 -48 -231 -113 l-53 -49 -122 36 c-67 21 -128 37 -134 37 -20 0 -26 -46
-20 -150 5 -102 28 -173 68 -216 15 -16 18 -26 10 -45 -9 -24 -50 -60 -83 -72
-10 -3 -18 -11 -18 -17 0 -9 19 -8 71 6 13 4 17 -10 22 -86 4 -50 14 -107 23
-128 9 -20 22 -64 30 -96 24 -100 86 -187 69 -98 l-7 37 41 -40 c23 -21 41
-47 41 -58 0 -10 14 -32 30 -49 29 -29 30 -32 19 -66 -12 -36 -6 -241 7 -276
6 -15 45 -16 368 -14 l361 3 -2 35 c-3 46 -22 136 -38 181 -12 35 -11 37 11
48 14 6 27 18 30 26 9 22 23 9 17 -15 -6 -22 9 -27 25 -7 6 7 19 35 30 62 16
40 28 54 60 70 22 11 50 29 61 39 19 17 21 18 21 2 0 -16 2 -16 31 1 45 26 77
78 90 146 l12 58 32 -31 c26 -25 38 -30 56 -25 l23 8 -21 16 c-45 37 -83 157
-83 264 0 54 3 62 40 105 21 26 46 68 55 92 36 103 39 310 5 302 -8 -2 -42 -8
-75 -13 -33 -5 -90 -18 -127 -29 l-67 -20 -47 29 c-49 32 -133 55 -174 50 -18
-3 -32 4 -48 23 -52 61 -181 99 -265 78z"/>
<path d="M1177 173 c6 -78 9 -85 21 -53 10 26 0 96 -16 112 -7 7 -8 -12 -5
-59z"/>
<path d="M1230 120 c0 -52 3 -70 10 -60 5 8 10 35 10 60 0 25 -5 52 -10 60 -7
10 -10 -8 -10 -60z"/>
</g>
</svg>
