<?xml version="1.0" standalone="no"?>
<!DOCTYPE svg PUBLIC "-//W3C//DTD SVG 20010904//EN"
 "http://www.w3.org/TR/2001/REC-SVG-20010904/DTD/svg10.dtd">
<svg version="1.0" xmlns="http://www.w3.org/2000/svg"
 width="229.000000pt" height="229.000000pt" viewBox="0 0 229.000000 229.000000"
 preserveAspectRatio="xMidYMid meet">
<metadata>
Created by potrace 1.11, written by Peter Selinger 2001-2013
</metadata>
<g transform="translate(0.000000,229.000000) scale(0.100000,-0.100000)"
fill="#000000" stroke="none">
<path d="M1525 1960 c-11 -27 -23 -50 -27 -50 -4 0 -31 10 -60 21 -29 12 -73
26 -98 30 -25 5 -65 13 -90 19 -113 24 -298 -3 -410 -60 -33 -17 -64 -30 -69
-30 -5 0 -12 12 -16 28 -9 38 -33 72 -50 72 -8 0 -38 -21 -66 -46 l-52 -46
-26 30 c-71 83 -137 62 -162 -54 -7 -32 -12 -68 -11 -80 1 -13 -12 -32 -36
-51 -46 -38 -137 -173 -180 -268 -39 -89 -106 -319 -99 -340 9 -21 19 -19 62
15 56 45 65 40 48 -22 -9 -35 -12 -89 -10 -158 5 -124 11 -143 41 -134 11 4
22 10 24 14 9 23 66 90 76 90 7 0 22 -19 34 -42 68 -135 107 -188 136 -188 17
0 37 59 61 179 l21 105 78 -77 c43 -42 76 -82 74 -88 -2 -6 -31 -20 -63 -31
-34 -10 -77 -33 -99 -53 -33 -29 -40 -42 -44 -83 -3 -33 1 -59 12 -80 l16 -32
-35 -22 c-42 -28 -48 -41 -33 -73 10 -21 7 -29 -24 -63 -42 -47 -135 -203
-183 -308 -19 -42 -35 -78 -35 -80 0 -2 9 -4 19 -4 14 0 33 28 73 107 63 127
168 300 186 307 13 6 82 -50 82 -66 0 -5 -13 -26 -30 -46 -29 -37 -170 -280
-170 -294 0 -5 9 -8 19 -8 14 0 33 26 73 100 29 56 63 113 76 128 29 33 27 26
-37 -115 -48 -109 -49 -113 -28 -113 24 0 24 -1 81 146 17 44 49 111 70 147
31 53 44 67 64 67 13 0 31 9 40 20 l17 21 85 -27 c47 -15 105 -29 130 -32 25
-2 50 -8 57 -14 13 -10 8 -144 -7 -188 -5 -14 -11 -51 -15 -83 -5 -48 -4 -57
9 -57 12 0 16 11 17 48 0 26 6 97 12 157 l12 110 61 -3 61 -3 6 -46 c6 -58 0
-75 -24 -68 -14 5 -17 2 -13 -9 3 -9 12 -16 20 -16 11 0 11 -5 2 -25 -6 -14
-14 -25 -18 -25 -10 0 -90 -71 -90 -80 0 -16 32 -40 53 -40 l22 0 -23 18 -22
17 45 39 c26 21 49 36 51 33 3 -3 1 -22 -5 -42 -12 -44 -5 -65 20 -65 14 0 19
7 19 25 0 14 12 62 26 106 24 70 31 81 61 96 31 14 34 20 29 45 -5 25 1 37 39
77 67 71 64 86 -38 228 -37 52 -31 70 21 71 50 1 151 35 228 77 l62 33 6 -44
c7 -51 60 -174 75 -174 11 0 12 3 36 125 17 87 69 188 94 183 8 -2 34 -32 58
-68 62 -93 69 -98 91 -77 15 15 17 38 17 173 l0 156 37 -6 c21 -4 59 -13 84
-22 104 -35 99 -15 -78 296 -171 302 -173 307 -186 453 -11 123 -28 187 -51
201 -6 4 -32 -11 -58 -33 -25 -23 -52 -41 -59 -41 -7 0 -24 14 -36 31 -27 36
-109 99 -130 99 -7 0 -22 -22 -33 -50z m115 -62 c34 -40 67 -74 71 -76 5 -2
34 18 64 43 l55 47 0 -33 c0 -19 7 -73 15 -121 14 -79 14 -90 -1 -127 -9 -23
-20 -41 -24 -41 -4 0 -26 30 -48 68 -36 60 -151 181 -212 222 -21 15 -22 17
-7 53 9 20 18 37 20 37 2 0 32 -33 67 -72z m-1097 -18 c18 -22 37 -40 41 -40
4 0 31 23 60 50 48 45 55 49 67 34 7 -8 15 -42 17 -74 4 -50 0 -69 -26 -125
-34 -72 -59 -84 -69 -34 -9 44 -101 99 -168 99 -44 0 -45 20 -4 128 11 29 33
19 82 -38z m774 39 c112 -27 268 -105 332 -168 48 -47 122 -151 196 -276 62
-106 62 -107 9 -83 -25 11 -49 17 -52 13 -4 -3 -12 -25 -18 -48 l-11 -42 -26
59 c-15 32 -27 76 -27 98 0 21 -7 55 -17 76 l-16 37 -9 -80 c-13 -119 -27
-124 -67 -25 -23 58 -149 215 -173 215 -9 0 -15 -25 -19 -88 -3 -48 -8 -90
-11 -92 -3 -3 -19 24 -37 59 -34 69 -119 156 -152 156 -13 0 -32 -21 -58 -62
-21 -35 -50 -75 -64 -90 -27 -30 -71 -39 -61 -13 7 18 -26 95 -42 95 -11 0
-36 -34 -122 -170 -36 -56 -42 -61 -42 -38 0 14 5 49 12 77 9 40 9 54 -1 64
-15 15 -31 -6 -24 -34 3 -11 0 -63 -7 -117 -21 -169 -19 -427 5 -717 9 -99 -5
-75 -53 90 -53 185 -77 292 -102 460 -12 77 -27 158 -34 180 -18 57 -5 98 47
153 50 55 86 125 95 192 7 43 9 46 67 74 143 68 316 84 482 45z m-768 -190
l63 -21 -5 -42 c-15 -113 -37 -249 -52 -314 -9 -41 -15 -82 -12 -92 5 -21 -15
-197 -38 -328 -8 -48 -15 -104 -15 -124 0 -49 -16 -57 -38 -18 -9 18 -34 60
-54 95 -20 34 -40 74 -44 89 -3 14 -10 29 -15 31 -4 3 -34 -19 -66 -50 l-58
-56 -3 90 c-2 55 3 115 13 156 26 115 18 127 -51 75 -55 -41 -68 -40 -49 6 8
21 22 64 31 98 33 128 155 344 226 400 41 32 83 33 167 5z m706 -61 c40 -31
91 -116 115 -192 12 -36 28 -66 35 -66 28 0 38 31 39 120 0 50 4 90 9 90 13 0
96 -81 116 -114 11 -17 24 -44 30 -59 10 -27 9 -26 -44 14 -72 54 -92 46 -33
-13 29 -30 56 -48 74 -50 25 -3 30 -8 34 -42 7 -52 26 -57 46 -11 8 20 20 35
27 32 6 -2 20 -30 30 -63 26 -85 19 -313 -12 -396 -39 -102 -169 -192 -328
-224 -169 -35 -403 24 -530 133 -36 32 -35 17 -34 375 l1 157 66 98 c37 54 74
106 84 117 18 18 18 18 30 -4 11 -20 9 -25 -19 -47 -17 -13 -31 -33 -31 -44 0
-24 8 -24 45 1 42 28 61 27 41 -2 -9 -12 -16 -30 -16 -40 0 -32 31 -19 46 20
9 20 24 46 34 57 11 11 29 43 41 70 24 56 56 105 68 105 5 0 21 -10 36 -22z
m638 -115 c14 -21 52 -87 85 -148 32 -60 86 -157 119 -215 56 -98 80 -150 70
-150 -3 0 -21 7 -40 15 -49 20 -126 20 -134 -1 -3 -8 -1 -20 6 -27 13 -13 16
-277 3 -277 -12 0 -37 29 -55 65 -8 17 -32 48 -52 70 l-37 40 -20 -43 c-11
-23 -24 -42 -29 -42 -24 0 -29 44 -21 169 5 72 7 142 4 156 -6 35 19 173 34
186 9 7 27 1 62 -21 54 -33 82 -38 82 -15 0 12 -89 178 -122 226 -12 17 -5 49
10 49 5 0 21 -17 35 -37z m-1273 -264 c0 -28 -4 -39 -15 -39 -16 0 -19 28 -9
67 9 34 24 17 24 -28z m21 -125 c4 -27 14 -80 23 -117 9 -38 16 -70 16 -73 0
-14 -41 0 -69 24 -31 26 -33 31 -32 90 1 68 24 136 43 130 7 -3 16 -27 19 -54z
m1110 -354 c-6 -28 -11 -70 -12 -93 0 -23 -4 -51 -8 -61 -7 -18 -9 -16 -19 14
-7 18 -12 43 -12 54 0 12 -5 27 -12 34 -8 8 -2 25 28 67 43 63 51 59 35 -15z
m-1002 -102 c35 -114 52 -157 62 -163 19 -12 8 -45 -19 -59 -15 -8 -34 -30
-41 -49 -14 -34 -17 -36 -77 -43 l-64 -6 -50 42 c-54 45 -57 51 -35 70 28 24
130 -6 169 -49 22 -24 46 -28 46 -6 0 21 -36 55 -59 55 -11 0 -23 4 -26 10 -3
6 -16 10 -28 10 -16 0 -31 14 -51 48 -40 64 -39 103 3 146 28 29 100 63 137
65 6 1 21 -32 33 -71z m167 31 l75 -41 -23 -25 c-42 -44 -20 -138 43 -185 20
-15 31 -17 51 -9 52 20 61 131 12 153 -34 16 -40 4 -19 -42 15 -32 15 -42 5
-55 -18 -22 -27 -19 -55 22 -31 46 -32 74 -2 108 22 26 24 26 57 13 19 -8 77
-21 127 -28 71 -11 94 -18 98 -31 3 -9 28 -54 55 -99 28 -45 50 -87 50 -94 0
-6 -20 -31 -44 -55 -40 -39 -44 -47 -39 -79 l6 -35 -33 7 c-19 3 -35 7 -36 9
-7 6 -6 203 1 276 7 70 6 83 -6 79 -18 -6 -47 -117 -48 -184 -2 -85 -11 -114
-35 -114 -33 0 -348 74 -369 87 -4 3 8 27 28 54 33 46 35 54 29 98 -4 31 -2
51 5 55 16 10 13 86 -4 120 -25 47 -25 47 71 -5z m342 -521 c-5 -32 -28 -35
-28 -4 0 17 5 26 16 26 10 0 14 -7 12 -22z"/>
<path d="M995 1303 c-4 -16 -8 -37 -10 -47 -6 -30 17 -115 33 -121 20 -7 32 3
48 41 18 44 18 76 -3 119 -22 45 -60 49 -68 8z"/>
<path d="M1501 1302 c-26 -49 19 -217 56 -210 15 3 18 16 21 92 2 67 -1 94
-13 112 -18 29 -50 31 -64 6z"/>
<path d="M1038 899 c-26 -27 -38 -48 -36 -63 5 -32 32 -26 38 9 4 22 16 36 48
54 43 23 44 23 85 5 23 -10 66 -33 95 -51 45 -28 52 -36 46 -57 -6 -27 14 -46
27 -25 5 8 9 29 9 46 0 27 -7 37 -40 58 -62 39 -136 65 -187 65 -41 0 -50 -5
-85 -41z"/>
<path d="M905 473 c10 -3 28 -11 40 -18 11 -7 37 -18 58 -25 20 -6 37 -18 37
-26 0 -18 34 -18 50 0 6 8 21 17 33 19 12 3 2 4 -23 4 -27 0 -68 11 -104 27
-32 14 -70 25 -85 25 -20 -1 -22 -2 -6 -6z"/>
<path d="M855 460 c3 -5 13 -10 21 -10 8 0 12 5 9 10 -3 6 -13 10 -21 10 -8 0
-12 -4 -9 -10z"/>
<path d="M806 279 c-30 -35 -32 -57 -11 -85 14 -18 15 -16 9 19 -7 40 14 77
43 77 7 0 13 5 13 10 0 20 -29 9 -54 -21z"/>
<path d="M912 224 c-1 -12 -5 -37 -8 -55 -5 -26 -4 -31 5 -23 7 7 11 29 8 55
-2 24 -4 34 -5 23z"/>
<path d="M810 136 c-8 -8 -27 -26 -42 -40 -34 -30 -34 -33 -2 -71 l26 -30 -16
32 c-22 45 -21 52 19 69 23 9 35 21 35 34 0 24 -1 24 -20 6z"/>
<path d="M891 92 c-13 -25 -15 -92 -2 -92 8 0 23 101 16 108 -2 2 -8 -5 -14
-16z"/>
</g>
</svg>
